<?xml version="1.0" encoding="UTF-8" standalone="no"?>
<svg
   width="500"
   height="620"
   viewBox="0 0 500 620"
   version="1.1"
   id="svg109"
   sodipodi:docname="logo.svg"
   inkscape:version="1.4.3 (0d15f750, 2025-12-25)"
   xmlns:inkscape="http://www.inkscape.org/namespaces/inkscape"
   xmlns:sodipodi="http://sodipodi.sourceforge.net/DTD/sodipodi-0.dtd"
   xmlns="http://www.w3.org/2000/svg"
   xmlns:svg="http://www.w3.org/2000/svg">
  <sodipodi:namedview
     id="namedview109"
     pagecolor="#505050"
     bordercolor="#eeeeee"
     borderopacity="1"
     inkscape:showpageshadow="0"
     inkscape:pageopacity="0"
     inkscape:pagecheckerboard="0"
     inkscape:deskcolor="#505050"
     inkscape:zoom="1.3665032"
     inkscape:cx="275.15486"
     inkscape:cy="311.7446"
     inkscape:window-width="1686"
     inkscape:window-height="993"
     inkscape:window-x="1730"
     inkscape:window-y="31"
     inkscape:window-maximized="0"
     inkscape:current-layer="svg109" />
  <defs
     id="defs2">
    <clipPath
       id="tL"
       clipPathUnits="userSpaceOnUse">
      <path
         transform="rotate(90,250,250)"
         d="m 250,58 c -40,0 -92,32 -132,90 -48,70 -60,102 -60,102 0,0 12,32 60,102 40,58 92,90 132,90 -10,-42 -16,-112 -16,-192 0,-80 6,-150 16,-192 z"
         id="path1" />
    </clipPath>
    <clipPath
       id="bL"
       clipPathUnits="userSpaceOnUse">
      <path
         transform="rotate(90,250,250)"
         d="m 250,58 c 40,0 92,32 132,90 48,70 60,102 60,102 0,0 -12,32 -60,102 -40,58 -92,90 -132,90 10,-42 16,-112 16,-192 0,-80 -6,-150 -16,-192 z"
         id="path2" />
    </clipPath>
  </defs>
  <!-- Background lobes -->
  <g
     id="g1"
     inkscape:label="background">
    <ellipse
       cx="250"
       cy="145"
       rx="168"
       ry="122"
       fill="#0e0e10"
       id="ellipse2"
       style="display:inline" />
    <ellipse
       cx="250"
       cy="355"
       rx="168"
       ry="111.51052"
       fill="#f0ead8"
       id="ellipse3"
       style="fill:#ffffff" />
  </g>
  <!-- Pawn: gold on dark -->
  <path
     d="m 309.42139,232.91187 -121.16211,0.0928 q 0,-12.52442 1.85547,-20.87403 1.94824,-8.34961 6.49414,-15.77148 5.75195,-9.37012 12.06054,-14.84375 6.40137,-5.56641 17.53418,-10.76172 -4.45312,-5.65918 -6.12304,-10.1123 -1.57715,-4.45313 -1.57715,-11.22559 0,-7.88574 4.45312,-14.56543 4.5459,-6.77246 12.89551,-11.41113 -5.10254,-7.3291 -5.10254,-11.59668 0,-7.51465 5.19531,-12.709964 5.19532,-5.288086 12.70997,-5.288086 7.05078,0 12.24609,5.288086 5.19531,5.195314 5.19531,12.338864 0,4.917 -5.19531,11.68946 10.01953,5.19531 13.63769,11.5039 4.5459,7.88574 4.5459,15.67871 0,10.20508 -7.60742,20.22461 11.875,5.9375 18.09082,11.31836 6.21582,5.28809 11.13281,13.82324 8.81348,15.12207 8.81348,32.28516 z"
     id="text3"
     clip-path="url(#tL)"
     style="font-size:190px;font-family:'Apple Symbols', 'Noto Sans Symbols2', Symbola, serif;dominant-baseline:central;text-anchor:middle;display:inline;fill:#ffffff;fill-opacity:0.92"
     transform="matrix(2.4209396,0,0,2.0514472,-353.31328,-120.02824)"
     aria-label="♟" />
  <!-- Queen: dark on ivory, inverted -->
  <path
     d="m 283.02734,394.1609 -0.55664,-6.95801 c -6.12305,-2.16471 -11.16374,-3.58724 -15.12207,-4.26758 -3.89648,-0.68034 -9.30826,-1.02051 -16.23535,-1.02051 -11.13281,0 -21.77083,1.66992 -31.91406,5.00977 l -0.3711,7.14355 c 10.14323,-3.21615 20.49254,6.84247 31.8109,6.84247 10.08138,0 21.13181,-10.02769 32.38832,-6.74969 z m -0.74218,-11.78223 -0.27832,-6.86523 c -11.07097,-3.33985 -21.0905,-5.00977 -30.0586,-5.00977 -9.95768,0 -20.75032,1.73177 -32.37793,5.19531 l -0.27832,6.58692 c 10.45247,-3.40169 21.02865,-5.10254 31.72852,-5.10254 9.77213,0 20.19368,1.73177 31.26465,5.19531 z m 0.0928,-10.66895 0.46387,-7.60742 c -10.57617,-3.46354 -21.43067,-10.63976 -32.56348,-10.63976 -10.20508,0 -20.65755,7.1453 -31.35742,10.54699 l 0.46387,7.42187 c 10.51432,-3.33984 19.88792,5.70447 31.33244,5.70447 10.45247,0 20.7753,-8.95154 31.66072,-5.42615 z m 8.7207,34.32618 c -12.49351,1.66992 -25.7593,9.57973 -40.6649,9.57973 -10.57617,0 -24.15284,-7.81704 -39.86247,-9.30141 2.04101,-12.43164 3.06152,-22.69857 3.06152,-30.80078 l -0.18554,-10.57618 -19.38965,-54.08691 c -1.05143,0.1237 -1.97917,0.18555 -2.78321,0.18555 -2.16471,0 -4.1748,-1.08236 -6.03027,-3.24707 -1.79362,-2.22657 -2.69043,-4.63868 -2.69043,-7.23633 0,-2.72135 1.05143,-5.07161 3.1543,-7.05078 2.10286,-2.04102 4.57682,-3.06153 7.42187,-3.06153 2.59766,0 4.97885,0.92774 7.14356,2.78321 2.22656,1.85547 3.33984,3.89648 3.33984,6.12304 0,2.47396 -1.45345,5.65918 -4.36035,9.55567 l 21.61621,32.84179 -1.3916,-44.62402 c -6.37045,-1.11328 -9.55567,-4.57682 -9.55567,-10.39062 0,-2.78321 0.98958,-5.19532 2.96875,-7.23633 2.04102,-2.04102 4.45313,-3.06153 7.23633,-3.06153 2.9069,0 5.38086,1.08236 7.42188,3.24707 2.10286,2.10287 3.15429,4.60775 3.15429,7.51465 0,2.53581 -1.85547,5.50456 -5.5664,8.90625 l 15.50356,27.20918 6.57652,-34.44551 c -4.63867,-2.28841 -6.95801,-5.41178 -6.95801,-9.37011 0,-3.09245 0.98958,-5.62825 2.96875,-7.60742 2.04101,-2.04102 4.60774,-3.06153 7.70019,-3.06153 2.84505,0 5.25716,0.98958 7.23633,2.96875 1.97917,1.91732 2.96875,4.26758 2.96875,7.05078 0,3.95833 -2.44303,7.3291 -7.3291,10.11231 l 7.3291,33.98163 14.93653,-27.1164 c -3.64909,-2.7832 -5.47364,-5.75195 -5.47364,-8.90625 0,-2.96875 1.02051,-5.47363 3.06153,-7.51465 2.10286,-2.04101 4.63867,-3.06152 7.60742,-3.06152 2.96875,0 5.4427,0.98958 7.42187,2.96875 2.04102,1.91732 3.06153,4.29851 3.06153,7.14356 0,5.44271 -3.40169,8.99902 -10.20508,10.66894 l -1.3916,44.53125 21.70898,-33.02734 c -2.84505,-3.46355 -4.32943,-6.33952 -4.45312,-8.62793 -0.1237,-2.28841 0.98958,-4.51498 3.33984,-6.67969 2.41211,-2.22656 4.91699,-3.33984 7.51465,-3.33984 2.84505,0 5.28809,1.05143 7.3291,3.15429 2.04101,2.04102 3.06152,4.51498 3.06152,7.42188 0,5.44271 -3.89648,8.78255 -11.68945,10.01953 l -18.83301,52.78809 c 0,16.57552 0.98958,30.80078 2.96875,42.67578 z"
     id="text4"
     clip-path="url(#bL)"
     style="font-size:190px;font-family:'Apple Symbols', 'Noto Sans Symbols2', Symbola, serif;dominant-baseline:central;text-anchor:middle;fill:#1a1408;fill-opacity:0.88"
     transform="matrix(1.9640092,0,0,-1.9266347,-242.67656,968.21558)"
     aria-label="♛"
     sodipodi:nodetypes="cccsccscccsccscccsccsccsccccscscscscccscscscccssscscccscscscccscscsccsc" />
  <!-- Ouroboros ring -->
  <g
     transform="matrix(0,1,-0.91809217,0,475.9406,-1.3499298)"
     id="g108"
     style="display:inline"
     inkscape:label="ouroboros">
    <path
       id="polygon4"
       transform="matrix(1.4707098,0,0,2.0276344,-116.44062,-257.16537)"
       style="fill:#c8a84e"
       d="m 94.3,255.6 -5.6,-9.5 -5.6,9.5 5.6,-3.9 z" />
    <path
       id="polygon5"
       transform="matrix(1.4707098,0,0,2.0276344,-116.44062,-257.16537)"
       style="fill:#c8a84e"
       d="M 94.3,246.3 89.9,236 83,244.8 89.2,241.6 Z" />
    <path
       id="polygon6"
       transform="matrix(1.4707098,0,0,2.0276344,-116.44062,-257.16537)"
       style="fill:#c8a84e"
       d="m 95.5,237 -3,-11 -8.2,8 6.7,-2.4 z" />
    <path
       id="polygon7"
       transform="matrix(1.4707098,0,0,2.0276344,-116.44062,-257.16537)"
       style="fill:#c8a84e"
       d="m 98,227.9 -1.7,-11.4 -9.2,6.9 7,-1.5 z" />
    <path
       id="polygon8"
       transform="matrix(1.4707098,0,0,2.0276344,-116.44062,-257.16537)"
       style="fill:#c8a84e"
       d="m 101.6,219.1 -0.4,-11.8 -10.1,5.9 7.3,-0.7 z" />
    <path
       id="polygon9"
       transform="matrix(1.4707098,0,0,2.0276344,-116.44062,-257.16537)"
       style="fill:#c8a84e"
       d="m 106.3,210.7 0.9,-11.9 -10.9,4.8 7.4,0.1 z" />
    <path
       id="polygon10"
       transform="matrix(1.4707098,0,0,2.0276344,-116.44062,-257.16537)"
       style="fill:#c8a84e"
       d="m 111.9,202.8 2,-11.9 -11.5,3.7 7.6,0.8 z" />
    <path
       id="polygon11"
       transform="matrix(1.4707098,0,0,2.0276344,-116.44062,-257.16537)"
       style="fill:#c8a84e"
       d="m 118.2,195.5 3.1,-11.8 -11.9,2.6 7.5,1.6 z" />
    <path
       id="polygon12"
       transform="matrix(1.4707098,0,0,2.0276344,-116.44062,-257.16537)"
       style="fill:#c8a84e"
       d="m 116.9,178.9 7.5,2.2 0.6,7.8 4.2,-11.7 z" />
    <path
       id="polygon13"
       transform="matrix(1.4707098,0,0,2.0276344,-116.44062,-257.16537)"
       style="fill:#c8a84e"
       d="m 124.8,172.2 7.4,2.9 v 7.9 l 5.2,-11.4 z" />
    <path
       id="polygon14"
       transform="matrix(1.4707098,0,0,2.0276344,-116.44062,-257.16537)"
       style="fill:#c8a84e"
       d="m 133,166.4 7.2,3.5 -0.6,8 6.1,-11.1 z" />
    <path
       id="polygon15"
       transform="matrix(1.4707098,0,0,2.0276344,-116.44062,-257.16537)"
       style="fill:#c8a84e"
       d="m 141.2,161.4 7,4.2 -1.2,8 7.1,-10.8 z" />
    <path
       id="polygon16"
       transform="matrix(1.4707098,0,0,2.0276344,-116.44062,-257.16537)"
       style="fill:#c8a84e"
       d="m 149.4,157.3 6.8,4.7 -1.9,8 8,-10.3 z" />
    <path
       id="polygon17"
       transform="matrix(1.4707098,0,0,2.0276344,-116.44062,-257.16537)"
       style="fill:#c8a84e"
       d="m 160.2,152.9 6.3,5.5 -2.7,7.9 9.1,-9.6 z" />
    <path
       id="polygon18"
       transform="matrix(1.4707098,0,0,2.0276344,-116.44062,-257.16537)"
       style="fill:#c8a84e"
       d="m 170.5,149.9 5.7,6.2 -3.6,7.7 10.2,-8.7 z" />
    <path
       id="polygon19"
       transform="matrix(1.4707098,0,0,2.0276344,-116.44062,-257.16537)"
       style="fill:#c8a84e"
       d="m 180.3,148 5,7.1 -4.6,7.3 11.4,-7.5 z" />
    <path
       id="polygon20"
       transform="matrix(1.4707098,0,0,2.0276344,-116.44062,-257.16537)"
       style="fill:#c8a84e"
       d="m 189.6,147.3 4.1,7.8 -5.5,6.8 12.3,-6.2 z" />
    <path
       id="polygon21"
       transform="matrix(1.4707098,0,0,2.0276344,-116.44062,-257.16537)"
       style="fill:#c8a84e"
       d="m 200.4,147.9 2.8,8.5 -6.8,5.9 13.5,-4 z" />
    <path
       id="polygon22"
       transform="matrix(1.4707098,0,0,2.0276344,-116.44062,-257.16537)"
       style="fill:#c8a84e"
       d="m 210.2,150.1 1.3,9 -7.8,4.7 14.1,-1.7 z" />
    <path
       id="polygon23"
       transform="matrix(1.4707098,0,0,2.0276344,-116.44062,-257.16537)"
       style="fill:#c8a84e"
       d="m 220.7,154.6 -0.7,9.2 -8.7,3 14.4,1.4 z" />
    <path
       id="polygon24"
       transform="matrix(1.4707098,0,0,2.0276344,-116.44062,-257.16537)"
       style="fill:#c8a84e"
       d="m 229.6,160.8 -2.4,9.1 -9.3,1.4 14.1,4 z" />
    <path
       id="polygon25"
       transform="matrix(1.4707098,0,0,2.0276344,-116.44062,-257.16537)"
       style="fill:#c8a84e"
       d="m 236.9,168.4 -3.9,8.7 -9.5,-0.1 13.5,6.3 z" />
    <path
       id="polygon26"
       transform="matrix(1.4707098,0,0,2.0276344,-116.44062,-257.16537)"
       style="fill:#c8a84e"
       d="m 242.8,177 -5.1,8.2 -9.5,-1.4 12.7,8.1 z" />
    <path
       id="polygon27"
       transform="matrix(1.4707098,0,0,2.0276344,-116.44062,-257.16537)"
       style="fill:#c8a84e"
       d="m 247.5,186.2 -6,7.7 -9.5,-2.4 11.9,9.5 z" />
    <path
       id="polygon28"
       transform="matrix(1.4707098,0,0,2.0276344,-116.44062,-257.16537)"
       style="fill:#c8a84e"
       d="m 261.4,286.7 -6.6,7.3 -9.3,-3.1 11.3,10.4 z" />
    <path
       id="polygon29"
       transform="matrix(1.4707098,0,0,2.0276344,-116.44062,-257.16537)"
       style="fill:#c8a84e"
       d="m 263.3,295.5 -5.8,7.8 -9.5,-2.3 12.1,9.3 z" />
    <path
       id="polygon30"
       transform="matrix(1.4707098,0,0,2.0276344,-116.44062,-257.16537)"
       style="fill:#c8a84e"
       d="m 265.9,303.9 -4.9,8.3 -9.6,-1.3 12.8,7.9 z" />
    <path
       id="polygon31"
       transform="matrix(1.4707098,0,0,2.0276344,-116.44062,-257.16537)"
       style="fill:#c8a84e"
       d="m 269.1,311.7 -3.7,8.7 -9.5,0.1 13.6,6 z" />
    <path
       id="polygon32"
       transform="matrix(1.4707098,0,0,2.0276344,-116.44062,-257.16537)"
       style="fill:#c8a84e"
       d="m 273,318.8 -2.1,9.2 -9.2,1.6 14.2,3.6 z" />
    <path
       id="polygon33"
       transform="matrix(1.4707098,0,0,2.0276344,-116.44062,-257.16537)"
       style="fill:#c8a84e"
       d="m 278.1,325.3 -0.3,9.2 -8.7,3.3 14.5,0.9 z" />
    <path
       id="polygon34"
       transform="matrix(1.4707098,0,0,2.0276344,-116.44062,-257.16537)"
       style="fill:#c8a84e"
       d="m 284.6,330.9 1.6,8.9 -7.6,4.9 14,-2.1 z" />
    <path
       id="polygon35"
       transform="matrix(1.4707098,0,0,2.0276344,-116.44062,-257.16537)"
       style="fill:#c8a84e"
       d="m 291.4,334.6 3.1,8.4 -6.5,6.1 13.3,-4.5 z" />
    <path
       id="polygon36"
       transform="matrix(1.4707098,0,0,2.0276344,-116.44062,-257.16537)"
       style="fill:#c8a84e"
       d="m 299.8,337.2 4.4,7.6 -5.4,6.9 12.2,-6.5 z" />
    <path
       id="polygon37"
       transform="matrix(1.4707098,0,0,2.0276344,-116.44062,-257.16537)"
       style="fill:#c8a84e"
       d="m 307.6,338.2 5.2,6.8 -4.4,7.5 11.1,-7.9 z" />
    <path
       id="polygon38"
       transform="matrix(1.4707098,0,0,2.0276344,-116.44062,-257.16537)"
       style="fill:#c8a84e"
       d="m 316.3,338 5.9,6.1 -3.4,7.8 9.9,-9 z" />
    <path
       id="polygon39"
       transform="matrix(1.4707098,0,0,2.0276344,-116.44062,-257.16537)"
       style="fill:#c8a84e"
       d="m 325.8,336.6 6.4,5.4 -2.5,7.9 8.8,-9.8 z" />
    <path
       id="polygon40"
       transform="matrix(1.4707098,0,0,2.0276344,-116.44062,-257.16537)"
       style="fill:#c8a84e"
       d="m 336,333.9 6.8,4.5 -1.6,8 7.6,-10.5 z" />
    <path
       id="polygon41"
       transform="matrix(1.4707098,0,0,2.0276344,-116.44062,-257.16537)"
       style="fill:#c8a84e"
       d="m 343.9,330.9 7.1,3.9 -1,8.1 6.7,-11 z" />
    <path
       id="polygon42"
       transform="matrix(1.4707098,0,0,2.0276344,-116.44062,-257.16537)"
       style="fill:#c8a84e"
       d="m 351.9,327.1 7.3,3.3 -0.4,8 5.8,-11.3 z" />
    <path
       id="polygon43"
       transform="matrix(1.4707098,0,0,2.0276344,-116.44062,-257.16537)"
       style="fill:#c8a84e"
       d="m 360,322.5 7.4,2.7 0.2,7.8 4.9,-11.5 z" />
    <path
       id="polygon44"
       transform="matrix(1.4707098,0,0,2.0276344,-115.46701,-251.79613)"
       style="fill:#c8a84e"
       d="m 375.3,319.1 0.9,7.7 3.8,-11.7 -12.2,2 z" />
    <path
       id="polygon45"
       transform="matrix(1.4707098,0,0,2.0276344,-116.44062,-257.16537)"
       style="fill:#c8a84e"
       d="m 375.4,311 7.5,1.3 1.5,7.5 2.8,-11.9 z" />
    <path
       id="polygon46"
       transform="matrix(1.4707098,0,0,2.0276344,-116.44062,-257.16537)"
       style="fill:#c8a84e"
       d="m 382.4,304.1 7.5,0.6 2.1,7.2 1.7,-11.9 z" />
    <path
       id="polygon47"
       transform="matrix(1.4707098,0,0,2.0276344,-116.44062,-257.16537)"
       style="fill:#c8a84e"
       d="m 388.8,296.6 7.4,-0.2 2.8,6.9 0.5,-11.8 z" />
    <path
       id="polygon48"
       transform="matrix(1.4707098,0,0,2.0276344,-116.44062,-257.16537)"
       style="fill:#c8a84e"
       d="m 394.4,288.6 7.2,-1 3.4,6.4 -0.8,-11.7 z" />
    <path
       id="polygon49"
       transform="matrix(1.4707098,0,0,2.0276344,-116.44062,-257.16537)"
       style="fill:#c8a84e"
       d="m 399,280 6.9,-1.8 4.1,5.9 -2.1,-11.3 z" />
    <path
       id="polygon50"
       transform="matrix(1.4707098,0,0,2.0276344,-116.44062,-257.16537)"
       style="fill:#c8a84e"
       d="m 402.5,271.1 6.5,-2.6 4.7,5.2 -3.4,-10.8 z" />
    <path
       id="polygon51"
       transform="matrix(1.4707098,0,0,2.0276344,-116.44062,-257.16537)"
       style="fill:#c8a84e"
       d="m 404.8,261.9 6,-3.5 5.3,4.5 -4.8,-10.1 z" />
    <path
       id="polygon52"
       transform="matrix(1.4707098,0,0,2.0276344,-116.44062,-257.16537)"
       style="fill:#c8a84e"
       d="m 405.8,252.5 5.5,-4.2 5.8,3.7 -6.1,-9.3 z" />
    <path
       id="polygon53"
       transform="matrix(1.4707098,0,0,2.0276344,-116.44062,-257.16537)"
       style="fill:#c8a84e"
       d="m 405.4,243.2 5,-5 6.3,2.9 -7.3,-8.5 z" />
    <path
       id="polygon54"
       transform="matrix(1.4707098,0,0,2.0276344,-116.44062,-257.16537)"
       style="fill:#c8a84e"
       d="m 403.8,234 4.3,-5.7 6.8,2.1 -8.5,-7.6 z" />
    <path
       id="polygon55"
       transform="matrix(1.4707098,0,0,2.0276344,-116.44062,-257.16537)"
       style="fill:#c8a84e"
       d="m 400.9,224.9 3.7,-6.2 7.1,1.2 -9.5,-6.5 z" />
    <path
       id="polygon56"
       transform="matrix(1.4707098,0,0,2.0276344,-116.44062,-257.16537)"
       style="fill:#c8a84e"
       d="m 396.9,216.2 3.1,-6.7 7.3,0.4 -10.4,-5.5 z" />
    <path
       id="polygon57"
       transform="matrix(1.4707098,0,0,2.0276344,-116.44062,-257.16537)"
       style="fill:#c8a84e"
       d="m 391.9,208 2.4,-7.1 7.5,-0.4 -11.1,-4.4 z" />
    <path
       id="polygon58"
       transform="matrix(1.4707098,0,0,2.0276344,-116.44062,-257.16537)"
       style="fill:#c8a84e"
       d="m 386.1,200.3 1.7,-7.4 7.5,-1.1 -11.6,-3.4 z" />
    <path
       id="polygon59"
       transform="matrix(1.4707098,0,0,2.0276344,-116.44062,-257.16537)"
       style="fill:#c8a84e"
       d="m 379.6,193.2 1.1,-7.6 7.5,-1.8 -12.1,-2.4 z" />
    <path
       id="polygon60"
       transform="matrix(1.4707098,0,0,2.0276344,-116.44062,-257.16537)"
       style="fill:#c8a84e"
       d="m 372.6,186.8 0.5,-7.8 7.4,-2.4 -12.4,-1.4 z" />
    <path
       id="polygon61"
       transform="matrix(1.4707098,0,0,2.0276344,-116.44062,-257.16537)"
       style="fill:#c8a84e"
       d="m 365.4,181.2 -0.2,-7.9 7.3,-3.1 -12.7,-0.3 z" />
    <path
       id="polygon62"
       transform="matrix(1.4707098,0,0,2.0276344,-116.44062,-257.16537)"
       style="fill:#c8a84e"
       d="m 357.9,176.4 -0.8,-8 7.2,-3.7 -12.8,0.7 z" />
    <path
       id="polygon63"
       transform="matrix(1.4707098,0,0,2.0276344,-116.44062,-257.16537)"
       style="fill:#c8a84e"
       d="m 350.5,172.3 -1.4,-8 6.9,-4.3 -12.8,1.7 z" />
    <path
       id="polygon64"
       transform="matrix(1.4707098,0,0,2.0276344,-116.44062,-257.16537)"
       style="fill:#c8a84e"
       d="m 343.3,169 -2.1,-8 6.6,-5 -12.8,2.8 z" />
    <path
       id="polygon65"
       transform="matrix(1.4707098,0,0,2.0276344,-116.44062,-257.16537)"
       style="fill:#c8a84e"
       d="m 334,165.6 -3,-7.9 6.2,-5.7 -12.6,4.2 z" />
    <path
       id="polygon66"
       transform="matrix(1.4707098,0,0,2.0276344,-116.44062,-257.16537)"
       style="fill:#c8a84e"
       d="m 325.3,163.4 -3.9,-7.6 5.6,-6.5 -12.2,5.7 z" />
    <path
       id="polygon67"
       transform="matrix(1.4707098,0,0,2.0276344,-116.44062,-257.16537)"
       style="fill:#c8a84e"
       d="m 317.3,162.2 -4.8,-7.2 4.8,-7.3 -11.6,7.3 z" />
    <path
       id="polygon68"
       transform="matrix(1.4707098,0,0,2.0276344,-116.44062,-257.16537)"
       style="fill:#c8a84e"
       d="m 308.4,161.9 -6,-6.5 3.6,-8 -10.4,9.2 z" />
    <path
       id="polygon69"
       transform="matrix(1.4707098,0,0,2.0276344,-116.44062,-257.16537)"
       style="fill:#c8a84e"
       d="m 300.6,162.8 -7.2,-5.5 2.2,-8.7 -8.8,11.1 z" />
    <path
       id="polygon70"
       transform="matrix(1.4707098,0,0,2.0276344,-116.44062,-257.16537)"
       style="fill:#c8a84e"
       d="m 293.7,164.6 -8.2,-4.1 0.6,-9.1 -6.7,12.6 z" />
    <path
       id="polygon71"
       transform="matrix(1.4707098,0,0,2.0276344,-116.44062,-257.16537)"
       style="fill:#c8a84e"
       d="m 286.4,168.2 -8.9,-2.5 -1.3,-9.2 -4.2,14 z" />
    <path
       id="polygon72"
       transform="matrix(1.4707098,0,0,2.0276344,-116.44062,-257.16537)"
       style="fill:#c8a84e"
       d="m 267.8,163.2 -1.6,14.7 14,-4.9 -9.4,-0.8 z" />
    <path
       id="polygon73"
       transform="matrix(1.4707098,0,0,2.0276344,-116.44062,-257.16537)"
       style="fill:#c8a84e"
       d="m 261,171.2 0.6,14.9 13.3,-7 -9.6,0.6 z" />
    <path
       id="polygon74"
       transform="matrix(1.4707098,0,0,2.0276344,-116.44062,-257.16537)"
       style="fill:#c8a84e"
       d="m 255.5,180 2.5,14.9 12.4,-8.6 -9.5,1.7 z" />
    <path
       id="polygon75"
       transform="matrix(1.4707098,0,0,2.0276344,-116.44062,-257.16537)"
       style="fill:#c8a84e"
       d="m 251.2,189.4 4,14.7 11.7,-9.9 -9.5,2.7 z" />
    <path
       id="polygon76"
       transform="matrix(1.4707098,0,0,2.0276344,-116.44062,-257.16537)"
       style="fill:#c8a84e"
       d="m 247.9,199.2 5.2,14.4 10.9,-10.8 -9.2,3.5 z" />
    <path
       id="polygon77"
       transform="matrix(1.4707098,0,0,2.0276344,-116.44062,-257.16537)"
       style="fill:#c8a84e"
       d="m 245.4,209.2 6.2,14.2 10.2,-11.5 -9,4 z" />
    <path
       id="polygon78"
       transform="matrix(1.4707098,0,0,2.0276344,-116.44062,-257.16537)"
       style="fill:#c8a84e"
       d="m 243.6,219.5 7,13.9 9.6,-12.2 -8.9,4.6 z" />
    <path
       id="polygon79"
       transform="matrix(1.4707098,0,0,2.0276344,-116.44062,-257.16537)"
       style="fill:#c8a84e"
       d="m 242.4,229.9 7.6,13.6 9.1,-12.7 -8.7,5 z" />
    <path
       id="polygon80"
       transform="matrix(1.4707098,0,0,2.0276344,-116.44062,-257.16537)"
       style="fill:#c8a84e"
       d="m 241.7,238.7 8.2,13.2 8.6,-13 -8.4,5.4 z" />
    <path
       id="polygon81"
       transform="matrix(1.4707098,0,0,2.0276344,-116.44062,-257.16537)"
       style="fill:#c8a84e"
       d="m 241.7,247 8.1,13.4 8.7,-13 -8.5,5.3 z" />
    <path
       id="polygon82"
       transform="matrix(1.4707098,0,0,2.0276344,-116.44062,-257.16537)"
       style="fill:#c8a84e"
       d="m 241.7,255.2 7.6,13.6 9.1,-12.6 -8.7,4.9 z" />
    <path
       id="polygon83"
       transform="matrix(1.4707098,0,0,2.0276344,-116.44062,-257.16537)"
       style="fill:#c8a84e"
       d="m 241.3,264.8 6.8,14 9.8,-12.1 -8.9,4.5 z" />
    <path
       id="polygon84"
       transform="matrix(1.4707098,0,0,2.0276344,-116.44062,-257.16537)"
       style="fill:#c8a84e"
       d="m 240.4,274.4 6.1,14.2 10.3,-11.5 -9.1,4 z" />
    <path
       id="polygon85"
       transform="matrix(1.4707098,0,0,2.0276344,-116.44062,-257.16537)"
       style="fill:#c8a84e"
       d="m 239.2,283.6 5,14.6 11,-10.7 -9.3,3.3 z" />
    <path
       id="polygon86"
       transform="matrix(1.4707098,0,0,2.0276344,-116.44062,-257.16537)"
       style="fill:#c8a84e"
       d="m 243.5,300.2 -6.1,-7.6 3.7,14.8 11.8,-9.7 z" />
    <path
       id="polygon87"
       transform="matrix(1.4707098,0,0,2.0276344,-116.44062,-257.16537)"
       style="fill:#c8a84e"
       d="m 235,301.1 2.3,15 12.5,-8.4 -9.5,1.6 z" />
    <path
       id="polygon88"
       transform="matrix(1.4707098,0,0,2.0276344,-116.44062,-257.16537)"
       style="fill:#c8a84e"
       d="m 232.1,309.1 0.3,15 13.4,-6.7 -9.6,0.3 z" />
    <path
       id="polygon89"
       transform="matrix(1.4707098,0,0,2.0276344,-116.44062,-257.16537)"
       style="fill:#c8a84e"
       d="m 228.4,316.5 -2,14.6 14,-4.5 -9.3,-1 z" />
    <path
       id="polygon90"
       transform="matrix(1.4707098,0,0,2.0276344,-116.44062,-257.16537)"
       style="fill:#c8a84e"
       d="m 223.7,323.2 -4.6,13.8 14.5,-1.8 -8.9,-2.7 z" />
    <path
       id="polygon91"
       transform="matrix(1.4707098,0,0,2.0276344,-116.44062,-257.16537)"
       style="fill:#c8a84e"
       d="m 217.8,329.2 -7.3,12.3 14.3,1.1 -8,-4.4 z" />
    <path
       id="polygon92"
       transform="matrix(1.4707098,0,0,2.0276344,-116.44062,-257.16537)"
       style="fill:#c8a84e"
       d="m 211.5,333.3 -9.2,10.7 13.6,3.5 -6.9,-5.6 z" />
    <path
       id="polygon93"
       transform="matrix(1.4707098,0,0,2.0276344,-116.44062,-257.16537)"
       style="fill:#c8a84e"
       d="m 203.7,336.3 -10.7,8.8 12.7,5.8 -5.8,-6.7 z" />
    <path
       id="polygon94"
       transform="matrix(1.4707098,0,0,2.0276344,-116.44062,-257.16537)"
       style="fill:#c8a84e"
       d="m 194.5,338 -11.8,6.9 11.3,7.5 -4.5,-7.3 z" />
    <path
       id="polygon95"
       transform="matrix(1.4707098,0,0,2.0276344,-116.44062,-257.16537)"
       style="fill:#c8a84e"
       d="m 186,338.2 -12.4,5.3 10.3,8.7 -3.6,-7.7 z" />
    <path
       id="polygon96"
       transform="matrix(1.4707098,0,0,2.0276344,-116.44062,-257.16537)"
       style="fill:#c8a84e"
       d="m 176.7,337.1 -12.7,3.8 9.1,9.6 -2.7,-7.9 z" />
    <path
       id="polygon97"
       transform="matrix(1.4707098,0,0,2.0276344,-116.44062,-257.16537)"
       style="fill:#c8a84e"
       d="m 166.6,334.7 -12.8,2.4 7.9,10.4 -1.8,-8.1 z" />
    <path
       id="polygon98"
       transform="matrix(1.4707098,0,0,2.0276344,-116.44062,-257.16537)"
       style="fill:#c8a84e"
       d="m 158.8,332 -12.8,1.4 7,10.7 -1.2,-8 z" />
    <path
       id="polygon99"
       transform="matrix(1.4707098,0,0,2.0276344,-116.44062,-257.16537)"
       style="fill:#c8a84e"
       d="m 150.7,328.5 -12.7,0.3 6.1,11.2 -0.6,-8 z" />
    <path
       id="polygon100"
       transform="matrix(1.4707098,0,0,2.0276344,-116.44062,-257.16537)"
       style="fill:#c8a84e"
       d="m 142.7,324.1 -12.6,-0.6 5.2,11.4 V 327 Z" />
    <path
       id="polygon101"
       transform="matrix(1.4707098,0,0,2.0276344,-116.44062,-257.16537)"
       style="fill:#c8a84e"
       d="m 134.7,319 -12.2,-1.7 4.2,11.7 0.6,-7.8 z" />
    <path
       id="polygon102"
       transform="matrix(1.4707098,0,0,2.0276344,-116.44062,-257.16537)"
       style="fill:#c8a84e"
       d="m 127.1,313.1 -12,-2.7 3.2,11.8 1.3,-7.5 z" />
    <path
       id="polygon103"
       transform="matrix(1.4707098,0,0,2.0276344,-116.44062,-257.16537)"
       style="fill:#c8a84e"
       d="m 119.9,306.5 -11.5,-3.8 2,11.9 2,-7.3 z" />
    <path
       id="polygon104"
       transform="matrix(1.4707098,0,0,2.0276344,-116.44062,-257.16537)"
       style="fill:#c8a84e"
       d="m 113.2,299.2 -10.9,-4.8 0.9,11.8 2.6,-6.9 z" />
    <path
       id="polygon105"
       transform="matrix(1.4707098,0,0,2.0276344,-116.44062,-257.16537)"
       style="fill:#c8a84e"
       d="m 107.4,291.3 -10.2,-5.9 -0.3,11.8 3.2,-6.6 z" />
    <path
       id="polygon106"
       transform="matrix(1.4707098,0,0,2.0276344,-116.44062,-257.16537)"
       style="fill:#c8a84e"
       d="m 102.5,282.9 -9.3,-6.9 -1.7,11.4 3.9,-6 z" />
    <path
       id="polygon107"
       transform="matrix(1.4707098,0,0,2.0276344,-116.44062,-257.16537)"
       style="fill:#c8a84e"
       d="m 98.6,274.1 -8.2,-7.9 -3,11 4.5,-5.5 z" />
    <path
       id="polygon108"
       transform="matrix(1.4707098,0,0,2.0276344,-116.44062,-257.16537)"
       style="fill:#c8a84e"
       d="m 95.8,265 -6.9,-8.8 -4.4,10.3 5.1,-4.7 z" />
  </g>
  <!-- Wordmark -->
  <g
     id="g109"
     transform="translate(-2.3728581,11.86429)"
     inkscape:label="text">
    <text
       x="250"
       y="550"
       text-anchor="middle"
       font-family="Georgia, 'Times New Roman', serif"
       font-size="12px"
       font-weight="400"
       letter-spacing="4"
       fill="#c8a84e"
       fill-opacity="0.6"
       id="text109">CONSULTING</text>
    <text
       x="247.62714"
       y="521.86432"
       text-anchor="middle"
       font-family="Georgia, 'Times New Roman', serif"
       font-size="38px"
       font-weight="400"
       letter-spacing="14"
       fill="#c8a84e"
       id="text108"
       style="display:inline">OUROBOROS</text>
    <line
       x1="92"
       y1="528"
       x2="408"
       y2="528"
       stroke="#c8a84e"
       stroke-width="0.8"
       stroke-opacity="0.5"
       id="line108" />
  </g>
</svg>
