<?xml version="1.0" encoding="UTF-8" standalone="no"?>
<!DOCTYPE svg PUBLIC "-//W3C//DTD SVG 1.1//EN" "http://www.w3.org/Graphics/SVG/1.1/DTD/svg11.dtd">
<!-- Created with Vectornator (http://vectornator.io/) -->
<svg height="100%" stroke-miterlimit="10" style="fill-rule:nonzero;clip-rule:evenodd;stroke-linecap:round;stroke-linejoin:round;" version="1.1" viewBox="0 0 512 512" width="100%" xml:space="preserve" xmlns="http://www.w3.org/2000/svg" xmlns:vectornator="http://vectornator.io" xmlns:xlink="http://www.w3.org/1999/xlink">
<defs>
<filter color-interpolation-filters="sRGB" filterUnits="userSpaceOnUse" height="360.072" id="Filter" width="254.876" x="128.562" y="49.5334">
<feDropShadow dx="0" dy="0" flood-color="#b1935d" flood-opacity="1" in="SourceGraphic" result="Shadow" stdDeviation="4.21941"/>
</filter>
<filter color-interpolation-filters="sRGB" filterUnits="userSpaceOnUse" height="144.519" id="Filter_2" width="233.779" x="139.11" y="254.538">
<feDropShadow dx="7.55532e-16" dy="12.3388" flood-color="#b1935d" flood-opacity="1" in="SourceGraphic" result="Shadow" stdDeviation="0"/>
</filter>
<filter color-interpolation-filters="sRGB" filterUnits="userSpaceOnUse" height="186.116" id="Filter_3" width="138.02" x="186.459" y="140.456">
<feDropShadow dx="3.56629e-19" dy="0.00582419" flood-color="#b1935d" flood-opacity="1" in="SourceGraphic" result="Shadow" stdDeviation="0"/>
</filter>
<filter color-interpolation-filters="sRGB" filterUnits="userSpaceOnUse" height="56.1282" id="Filter_4" width="91.509" x="211.279" y="112.259">
<feDropShadow dx="2.15331e-19" dy="0.00351662" flood-color="#000000" flood-opacity="0.333" in="SourceGraphic" result="Shadow" stdDeviation="0"/>
</filter>
<filter color-interpolation-filters="sRGB" filterUnits="userSpaceOnUse" height="73.5646" id="Filter_5" width="60.3649" x="225.821" y="60.0819">
<feDropShadow dx="0.00771496" dy="4.51741" flood-color="#b1935d" flood-opacity="1" in="SourceGraphic" result="Shadow" stdDeviation="0"/>
</filter>
<radialGradient cx="0" cy="0" gradientTransform="matrix(171.652 -2.64864 2.00478 208.303 169.973 280.27)" gradientUnits="userSpaceOnUse" id="RadialGradient" r="1">
<stop offset="0" stop-color="#4a6b5f"/>
<stop offset="1" stop-color="#000000" stop-opacity="0.745525"/>
</radialGradient>
<path d="M61.9191 128.918L77.5434 137.939L77.5434 155.981L61.9191 165.001L46.2948 155.981L46.2948 137.939L61.9191 128.918Z" id="Fill"/>
<path d="M55.0716 360.515L70.6959 369.536L70.6959 387.578L55.0716 396.598L39.4473 387.578L39.4473 369.536L55.0716 360.515Z" id="Fill_2"/>
<path d="M256 460.521L271.624 469.541L271.624 487.583L256 496.604L240.376 487.583L240.376 469.541L256 460.521Z" id="Fill_3"/>
<path d="M264.995 28.7377L259.706 49.2764L238.538 50.5925L230.745 30.8671L247.096 17.3601L264.995 28.7377Z" id="Fill_4"/>
<path d="M445.446 128.918L461.071 137.939L461.071 155.981L445.446 165.001L429.822 155.981L429.822 137.939L445.446 128.918Z" id="Fill_5"/>
<path d="M451.597 353.148L467.221 362.169L467.221 380.21L451.597 389.231L435.972 380.21L435.972 362.169L451.597 353.148Z" id="Fill_6"/>
</defs>
<g id="Layer-2" vectornator:layerName="Layer 2"/>
<g id="Chess" vectornator:layerName="Chess">
<g filter="url(#Filter)" vectornator:layerName="Pawn" vectornator:shadowAngle="1.56909" vectornator:shadowColor="#b1935d" vectornator:shadowOffset="0" vectornator:shadowOpacity="1" vectornator:shadowRadius="8.43882">
<path d="M241.335 258.818C253.277 256.863 265.463 256.921 277.385 258.991L326.925 267.589C352.433 272.017 370.662 294.732 369.46 320.594L369.46 320.594L256 385.391L142.54 320.594L142.54 320.594C141.341 294.795 159.66 272.19 185.148 268.017L241.335 258.818Z" fill="#fcf5f0" fill-rule="nonzero" filter="url(#Filter_2)" stroke="#b1935d" stroke-linecap="butt" stroke-linejoin="round" stroke-width="2.65369" vectornator:layerName="Polygon 5" vectornator:shadowAngle="1.5708" vectornator:shadowColor="#b1935d" vectornator:shadowOffset="12.3388" vectornator:shadowOpacity="1" vectornator:shadowRadius="0"/>
<path d="M256 141.85C249.105 141.85 242.21 145.949 237.719 154.163L234.219 178.663L206.656 229.319C206.191 230.175 205.692 231.016 205.188 231.85L203.031 235.444C191.391 254.703 177.175 273.436 200.031 293.882L221.101 306.362C240.771 318.013 265.143 318.362 285.138 307.278L309.25 293.913C334.252 273.648 320.069 253.797 307.938 233.725L306.031 230.6L277.5 178.163L274.281 154.163C269.79 145.949 262.895 141.85 256 141.85Z" fill="#fcf5f0" fill-rule="nonzero" filter="url(#Filter_3)" stroke="#b1935d" stroke-linecap="butt" stroke-linejoin="round" stroke-width="2.78824" vectornator:layerName="Polygon 6" vectornator:shadowAngle="1.5708" vectornator:shadowColor="#b1935d" vectornator:shadowOffset="0.00582419" vectornator:shadowOpacity="1" vectornator:shadowRadius="0"/>
<path d="M259.02 114.277C260.022 114.033 261.069 114.044 262.067 114.307L283.264 119.913C293.404 122.594 299.848 132.538 298.154 142.889L298.154 142.889C297.825 144.904 296.523 146.627 294.674 147.494L256.4 165.455C254.674 166.264 252.673 166.234 250.972 165.373L216.971 148.157C214.562 146.937 213.222 144.297 213.658 141.633L213.658 141.633C215.344 131.331 223.027 123.037 233.17 120.568L259.02 114.277Z" fill="#fcf5f0" fill-rule="nonzero" filter="url(#Filter_4)" stroke="#b1935d" stroke-linecap="butt" stroke-linejoin="round" stroke-width="3.29288" vectornator:layerName="Polygon 2" vectornator:shadowAngle="1.5708" vectornator:shadowColor="#000000" vectornator:shadowOffset="0.00351662" vectornator:shadowOpacity="0.333" vectornator:shadowRadius="0"/>
<path d="M249.619 65.4045C253.569 63.129 258.431 63.129 262.381 65.4045L278.131 74.4792C282.092 76.7608 284.532 80.9835 284.532 85.5539L284.532 103.657C284.532 108.228 282.092 112.45 278.131 114.732L262.381 123.807C258.431 126.082 253.569 126.082 249.619 123.807L233.869 114.732C229.908 112.45 227.468 108.228 227.468 103.657L227.468 85.5539C227.468 80.9835 229.908 76.7608 233.869 74.4792L249.619 65.4045Z" fill="#fcf5f0" fill-rule="nonzero" filter="url(#Filter_5)" stroke="#b1935d" stroke-linecap="butt" stroke-linejoin="round" stroke-width="3.29288" vectornator:layerName="Polygon 4" vectornator:shadowAngle="1.56909" vectornator:shadowColor="#b1935d" vectornator:shadowOffset="4.51741" vectornator:shadowOpacity="1" vectornator:shadowRadius="0"/>
</g>
<g vectornator:layerName="Queen"/>
<path d="M272.781 203.406C271.764 203.378 270.698 203.534 269.687 203.906L257.702 208.307C257.185 208.497 256.62 208.51 256.095 208.344L242.437 204.031C241.447 203.717 240.423 203.625 239.437 203.688C236.48 203.876 233.821 205.662 232.906 208.344L212.594 242.625C212.005 244.351 212.185 246.014 212.719 247.625L196.368 281.735C195.25 284.068 197.991 286.347 200.081 284.822L219.18 270.88C220.922 269.609 223.346 271.002 223.125 273.147L220.687 296.75C220.404 299.469 224.058 300.568 225.344 298.156L225.906 297.156C231.073 287.481 245.515 289.027 248.344 299.562L254.155 321.274C254.82 323.758 258.357 323.726 258.976 321.229L263.938 301.219C266.661 290.197 281.81 288.608 286.656 298.844C287.689 301.019 290.974 300.186 290.844 297.781L289.469 272.65C289.357 270.592 291.652 269.296 293.357 270.457L311.913 283.097C314.041 284.547 316.701 282.206 315.533 279.91L298.812 247.062C299.535 245.316 299.762 243.488 299.156 241.625L279.531 208.031C278.631 205.26 275.834 203.492 272.781 203.406ZM230.125 223.563L256 228L281.875 223.562L281.875 237.594L255.375 243.875L230.125 237.594L230.125 223.563ZM335.856 288.674C335.299 287.981 334.414 287.639 333.536 287.775L324.793 289.129C323.96 289.258 323.249 289.8 322.903 290.569L319.47 298.216C319.085 299.074 319.215 300.075 319.808 300.805L324.825 306.985C325.384 307.675 326.269 308.014 327.146 307.875L335.871 306.497C336.699 306.366 337.405 305.828 337.751 305.064L341.184 297.474C341.571 296.618 341.444 295.618 340.855 294.887L335.856 288.674ZM177.771 294.062C176.901 294.041 176.083 294.475 175.614 295.207L171.006 302.394C170.511 303.167 170.481 304.149 170.927 304.95L175.034 312.317C175.463 313.087 176.266 313.572 177.147 313.594L186.024 313.813C186.89 313.834 187.705 313.404 188.175 312.677L192.847 305.463C193.349 304.687 193.38 303.697 192.928 302.891L188.807 295.551C188.377 294.785 187.576 294.303 186.697 294.281L177.771 294.062ZM290.812 310.781C290.435 310.87 290.085 311.056 289.781 311.312L285.221 315.155C284.496 315.767 284.181 316.737 284.409 317.657L285.598 322.463C285.821 323.363 286.524 324.064 287.425 324.284L293.344 325.728C294.117 325.917 294.932 325.725 295.54 325.212L300.124 321.344C300.849 320.732 301.163 319.761 300.934 318.84L299.746 314.066C299.522 313.166 298.817 312.466 297.917 312.247L292 310.813C291.613 310.718 291.19 310.693 290.812 310.781ZM218.281 313.5C217.902 313.421 217.478 313.427 217.094 313.531L211.19 315.125C210.3 315.365 209.616 316.078 209.412 316.977L208.312 321.816C208.101 322.743 208.436 323.708 209.175 324.305L213.755 328.002C214.375 328.502 215.195 328.676 215.964 328.47L221.905 326.876C222.795 326.637 223.481 325.925 223.687 325.025L224.788 320.2C225 319.271 224.663 318.303 223.921 317.706L219.312 314C219.002 313.75 218.661 313.579 218.281 313.5ZM256.656 331.031C256.218 331.037 255.794 331.139 255.406 331.375L247.847 335.996C247.1 336.453 246.648 337.27 246.657 338.146L246.75 347.24C246.759 348.125 247.237 348.939 248.006 349.377L255.629 353.722C256.418 354.172 257.389 354.156 258.163 353.681L265.687 349.065C266.432 348.607 266.883 347.792 266.874 346.917L266.782 337.851C266.773 336.97 266.299 336.159 265.535 335.719L257.938 331.344C257.544 331.118 257.094 331.025 256.656 331.031Z" fill="url(#RadialGradient)" fill-rule="nonzero" opacity="1" stroke="#b1935d" stroke-linecap="butt" stroke-linejoin="round" stroke-width="4.0981" vectornator:layerName="Curve 1"/>
</g>
<g id="Frame" vectornator:layerName="Frame">
<path d="M254.95 26.4505C255.6 26.0755 256.4 26.0755 257.05 26.4505L454.425 140.405C455.075 140.78 455.475 141.473 455.475 142.223L455.475 370.133C455.475 370.883 455.075 371.576 454.425 371.951L257.05 485.905C256.4 486.28 255.6 486.28 254.95 485.905L57.575 371.951C56.9255 371.576 56.5254 370.883 56.5254 370.133L56.5254 142.223C56.5254 141.473 56.9255 140.78 57.575 140.405L254.95 26.4505Z" fill="none" opacity="0" stroke="#4a6b5f" stroke-linecap="butt" stroke-linejoin="round" stroke-width="32.2044" vectornator:layerName="Hex"/>
<g opacity="1" vectornator:layerName="Polygon 1">
<use fill="#000000" fill-rule="nonzero" stroke="none" xlink:href="#Fill"/>
<mask height="36.0828" id="StrokeMask" maskUnits="userSpaceOnUse" width="31.2486" x="46.2948" y="128.918">
<rect fill="#000000" height="36.0828" stroke="none" width="31.2486" x="46.2948" y="128.918"/>
<use fill="#ffffff" fill-rule="evenodd" stroke="none" xlink:href="#Fill"/>
</mask>
<use fill="none" mask="url(#StrokeMask)" stroke="#b1935d" stroke-linecap="butt" stroke-linejoin="round" stroke-width="13.7699" xlink:href="#Fill"/>
</g>
<g opacity="1" vectornator:layerName="Polygon 5">
<use fill="#000000" fill-rule="nonzero" stroke="none" xlink:href="#Fill_2"/>
<mask height="36.0828" id="StrokeMask_2" maskUnits="userSpaceOnUse" width="31.2486" x="39.4473" y="360.515">
<rect fill="#000000" height="36.0828" stroke="none" width="31.2486" x="39.4473" y="360.515"/>
<use fill="#ffffff" fill-rule="evenodd" stroke="none" xlink:href="#Fill_2"/>
</mask>
<use fill="none" mask="url(#StrokeMask_2)" stroke="#b1935d" stroke-linecap="butt" stroke-linejoin="round" stroke-width="13.7699" xlink:href="#Fill_2"/>
</g>
<g opacity="1" vectornator:layerName="Polygon 6">
<use fill="#000000" fill-rule="nonzero" stroke="none" xlink:href="#Fill_3"/>
<mask height="36.0828" id="StrokeMask_3" maskUnits="userSpaceOnUse" width="31.2486" x="240.376" y="460.521">
<rect fill="#000000" height="36.0828" stroke="none" width="31.2486" x="240.376" y="460.521"/>
<use fill="#ffffff" fill-rule="evenodd" stroke="none" xlink:href="#Fill_3"/>
</mask>
<use fill="none" mask="url(#StrokeMask_3)" stroke="#b1935d" stroke-linecap="butt" stroke-linejoin="round" stroke-width="13.7699" xlink:href="#Fill_3"/>
</g>
<g opacity="1" vectornator:layerName="Polygon 2">
<use fill="#000000" fill-rule="nonzero" stroke="none" xlink:href="#Fill_4"/>
<mask height="33.2323" id="StrokeMask_4" maskUnits="userSpaceOnUse" width="34.2506" x="230.745" y="17.3601">
<rect fill="#000000" height="33.2323" stroke="none" width="34.2506" x="230.745" y="17.3601"/>
<use fill="#ffffff" fill-rule="evenodd" stroke="none" xlink:href="#Fill_4"/>
</mask>
<use fill="none" mask="url(#StrokeMask_4)" stroke="#b1935d" stroke-linecap="butt" stroke-linejoin="round" stroke-width="13.7699" xlink:href="#Fill_4"/>
</g>
<g opacity="1" vectornator:layerName="Polygon 3">
<use fill="#000000" fill-rule="nonzero" stroke="none" xlink:href="#Fill_5"/>
<mask height="36.0828" id="StrokeMask_5" maskUnits="userSpaceOnUse" width="31.2486" x="429.822" y="128.918">
<rect fill="#000000" height="36.0828" stroke="none" width="31.2486" x="429.822" y="128.918"/>
<use fill="#ffffff" fill-rule="evenodd" stroke="none" xlink:href="#Fill_5"/>
</mask>
<use fill="none" mask="url(#StrokeMask_5)" stroke="#b1935d" stroke-linecap="butt" stroke-linejoin="round" stroke-width="13.7699" xlink:href="#Fill_5"/>
</g>
<g opacity="1" vectornator:layerName="Polygon 4">
<use fill="#000000" fill-rule="nonzero" stroke="none" xlink:href="#Fill_6"/>
<mask height="36.0828" id="StrokeMask_6" maskUnits="userSpaceOnUse" width="31.2486" x="435.972" y="353.148">
<rect fill="#000000" height="36.0828" stroke="none" width="31.2486" x="435.972" y="353.148"/>
<use fill="#ffffff" fill-rule="evenodd" stroke="none" xlink:href="#Fill_6"/>
</mask>
<use fill="none" mask="url(#StrokeMask_6)" stroke="#b1935d" stroke-linecap="butt" stroke-linejoin="round" stroke-width="13.7699" xlink:href="#Fill_6"/>
</g>
<g id="Chain" vectornator:layerName="Chain">
<ellipse cx="260.49" cy="29.62" rx="5.8" ry="2.4" transform="rotate(29.74,260.49,29.62)" fill="none" stroke="#b1935d" stroke-width="1.25" opacity="0.52"/>
<ellipse cx="271.57" cy="35.95" rx="5.8" ry="2.4" transform="rotate(29.74,271.57,35.95)" fill="none" stroke="#b1935d" stroke-width="1.25" opacity="0.52"/>
<ellipse cx="282.65" cy="42.28" rx="5.8" ry="2.4" transform="rotate(29.74,282.65,42.28)" fill="none" stroke="#b1935d" stroke-width="1.25" opacity="0.52"/>
<ellipse cx="293.74" cy="48.61" rx="5.8" ry="2.4" transform="rotate(29.74,293.74,48.61)" fill="none" stroke="#b1935d" stroke-width="1.25" opacity="0.52"/>
<ellipse cx="304.82" cy="54.94" rx="5.8" ry="2.4" transform="rotate(29.74,304.82,54.94)" fill="none" stroke="#b1935d" stroke-width="1.25" opacity="0.52"/>
<ellipse cx="315.90" cy="61.27" rx="5.8" ry="2.4" transform="rotate(29.74,315.90,61.27)" fill="none" stroke="#b1935d" stroke-width="1.25" opacity="0.52"/>
<ellipse cx="326.98" cy="67.60" rx="5.8" ry="2.4" transform="rotate(29.74,326.98,67.60)" fill="none" stroke="#b1935d" stroke-width="1.25" opacity="0.52"/>
<ellipse cx="338.06" cy="73.93" rx="5.8" ry="2.4" transform="rotate(29.74,338.06,73.93)" fill="none" stroke="#b1935d" stroke-width="1.25" opacity="0.52"/>
<ellipse cx="349.15" cy="80.26" rx="5.8" ry="2.4" transform="rotate(29.74,349.15,80.26)" fill="none" stroke="#b1935d" stroke-width="1.25" opacity="0.52"/>
<ellipse cx="360.23" cy="86.59" rx="5.8" ry="2.4" transform="rotate(29.74,360.23,86.59)" fill="none" stroke="#b1935d" stroke-width="1.25" opacity="0.52"/>
<ellipse cx="371.31" cy="92.92" rx="5.8" ry="2.4" transform="rotate(29.74,371.31,92.92)" fill="none" stroke="#b1935d" stroke-width="1.25" opacity="0.52"/>
<ellipse cx="382.39" cy="99.25" rx="5.8" ry="2.4" transform="rotate(29.74,382.39,99.25)" fill="none" stroke="#b1935d" stroke-width="1.25" opacity="0.52"/>
<ellipse cx="393.47" cy="105.59" rx="5.8" ry="2.4" transform="rotate(29.74,393.47,105.59)" fill="none" stroke="#b1935d" stroke-width="1.25" opacity="0.52"/>
<ellipse cx="404.56" cy="111.92" rx="5.8" ry="2.4" transform="rotate(29.74,404.56,111.92)" fill="none" stroke="#b1935d" stroke-width="1.25" opacity="0.52"/>
<ellipse cx="415.64" cy="118.25" rx="5.8" ry="2.4" transform="rotate(29.74,415.64,118.25)" fill="none" stroke="#b1935d" stroke-width="1.25" opacity="0.52"/>
<ellipse cx="426.72" cy="124.58" rx="5.8" ry="2.4" transform="rotate(29.74,426.72,124.58)" fill="none" stroke="#b1935d" stroke-width="1.25" opacity="0.52"/>
<ellipse cx="437.80" cy="130.91" rx="5.8" ry="2.4" transform="rotate(29.74,437.80,130.91)" fill="none" stroke="#b1935d" stroke-width="1.25" opacity="0.52"/>
<ellipse cx="448.88" cy="137.24" rx="5.8" ry="2.4" transform="rotate(29.74,448.88,137.24)" fill="none" stroke="#b1935d" stroke-width="1.25" opacity="0.52"/>
<ellipse cx="454.43" cy="146.79" rx="5.8" ry="2.4" transform="rotate(90.00,454.43,146.79)" fill="none" stroke="#b1935d" stroke-width="1.25" opacity="0.52"/>
<ellipse cx="454.43" cy="159.55" rx="5.8" ry="2.4" transform="rotate(90.00,454.43,159.55)" fill="none" stroke="#b1935d" stroke-width="1.25" opacity="0.52"/>
<ellipse cx="454.43" cy="172.31" rx="5.8" ry="2.4" transform="rotate(90.00,454.43,172.31)" fill="none" stroke="#b1935d" stroke-width="1.25" opacity="0.52"/>
<ellipse cx="454.43" cy="185.07" rx="5.8" ry="2.4" transform="rotate(90.00,454.43,185.07)" fill="none" stroke="#b1935d" stroke-width="1.25" opacity="0.52"/>
<ellipse cx="454.43" cy="197.84" rx="5.8" ry="2.4" transform="rotate(90.00,454.43,197.84)" fill="none" stroke="#b1935d" stroke-width="1.25" opacity="0.52"/>
<ellipse cx="454.43" cy="210.60" rx="5.8" ry="2.4" transform="rotate(90.00,454.43,210.60)" fill="none" stroke="#b1935d" stroke-width="1.25" opacity="0.52"/>
<ellipse cx="454.43" cy="223.36" rx="5.8" ry="2.4" transform="rotate(90.00,454.43,223.36)" fill="none" stroke="#b1935d" stroke-width="1.25" opacity="0.52"/>
<ellipse cx="454.43" cy="236.12" rx="5.8" ry="2.4" transform="rotate(90.00,454.43,236.12)" fill="none" stroke="#b1935d" stroke-width="1.25" opacity="0.52"/>
<ellipse cx="454.43" cy="248.89" rx="5.8" ry="2.4" transform="rotate(90.00,454.43,248.89)" fill="none" stroke="#b1935d" stroke-width="1.25" opacity="0.52"/>
<ellipse cx="454.43" cy="261.65" rx="5.8" ry="2.4" transform="rotate(90.00,454.43,261.65)" fill="none" stroke="#b1935d" stroke-width="1.25" opacity="0.52"/>
<ellipse cx="454.43" cy="274.41" rx="5.8" ry="2.4" transform="rotate(90.00,454.43,274.41)" fill="none" stroke="#b1935d" stroke-width="1.25" opacity="0.52"/>
<ellipse cx="454.43" cy="287.18" rx="5.8" ry="2.4" transform="rotate(90.00,454.43,287.18)" fill="none" stroke="#b1935d" stroke-width="1.25" opacity="0.52"/>
<ellipse cx="454.43" cy="299.94" rx="5.8" ry="2.4" transform="rotate(90.00,454.43,299.94)" fill="none" stroke="#b1935d" stroke-width="1.25" opacity="0.52"/>
<ellipse cx="454.43" cy="312.70" rx="5.8" ry="2.4" transform="rotate(90.00,454.43,312.70)" fill="none" stroke="#b1935d" stroke-width="1.25" opacity="0.52"/>
<ellipse cx="454.43" cy="325.46" rx="5.8" ry="2.4" transform="rotate(90.00,454.43,325.46)" fill="none" stroke="#b1935d" stroke-width="1.25" opacity="0.52"/>
<ellipse cx="454.43" cy="338.23" rx="5.8" ry="2.4" transform="rotate(90.00,454.43,338.23)" fill="none" stroke="#b1935d" stroke-width="1.25" opacity="0.52"/>
<ellipse cx="454.43" cy="350.99" rx="5.8" ry="2.4" transform="rotate(90.00,454.43,350.99)" fill="none" stroke="#b1935d" stroke-width="1.25" opacity="0.52"/>
<ellipse cx="454.43" cy="363.75" rx="5.8" ry="2.4" transform="rotate(90.00,454.43,363.75)" fill="none" stroke="#b1935d" stroke-width="1.25" opacity="0.52"/>
<ellipse cx="448.94" cy="373.35" rx="5.8" ry="2.4" transform="rotate(149.61,448.94,373.35)" fill="none" stroke="#b1935d" stroke-width="1.25" opacity="0.52"/>
<ellipse cx="437.98" cy="379.78" rx="5.8" ry="2.4" transform="rotate(149.61,437.98,379.78)" fill="none" stroke="#b1935d" stroke-width="1.25" opacity="0.52"/>
<ellipse cx="427.01" cy="386.21" rx="5.8" ry="2.4" transform="rotate(149.61,427.01,386.21)" fill="none" stroke="#b1935d" stroke-width="1.25" opacity="0.52"/>
<ellipse cx="416.05" cy="392.64" rx="5.8" ry="2.4" transform="rotate(149.61,416.05,392.64)" fill="none" stroke="#b1935d" stroke-width="1.25" opacity="0.52"/>
<ellipse cx="405.08" cy="399.08" rx="5.8" ry="2.4" transform="rotate(149.61,405.08,399.08)" fill="none" stroke="#b1935d" stroke-width="1.25" opacity="0.52"/>
<ellipse cx="394.12" cy="405.51" rx="5.8" ry="2.4" transform="rotate(149.61,394.12,405.51)" fill="none" stroke="#b1935d" stroke-width="1.25" opacity="0.52"/>
<ellipse cx="383.15" cy="411.94" rx="5.8" ry="2.4" transform="rotate(149.61,383.15,411.94)" fill="none" stroke="#b1935d" stroke-width="1.25" opacity="0.52"/>
<ellipse cx="372.19" cy="418.37" rx="5.8" ry="2.4" transform="rotate(149.61,372.19,418.37)" fill="none" stroke="#b1935d" stroke-width="1.25" opacity="0.52"/>
<ellipse cx="361.22" cy="424.80" rx="5.8" ry="2.4" transform="rotate(149.61,361.22,424.80)" fill="none" stroke="#b1935d" stroke-width="1.25" opacity="0.52"/>
<ellipse cx="350.25" cy="431.23" rx="5.8" ry="2.4" transform="rotate(149.61,350.25,431.23)" fill="none" stroke="#b1935d" stroke-width="1.25" opacity="0.52"/>
<ellipse cx="339.29" cy="437.67" rx="5.8" ry="2.4" transform="rotate(149.61,339.29,437.67)" fill="none" stroke="#b1935d" stroke-width="1.25" opacity="0.52"/>
<ellipse cx="328.32" cy="444.10" rx="5.8" ry="2.4" transform="rotate(149.61,328.32,444.10)" fill="none" stroke="#b1935d" stroke-width="1.25" opacity="0.52"/>
<ellipse cx="317.36" cy="450.53" rx="5.8" ry="2.4" transform="rotate(149.61,317.36,450.53)" fill="none" stroke="#b1935d" stroke-width="1.25" opacity="0.52"/>
<ellipse cx="306.39" cy="456.96" rx="5.8" ry="2.4" transform="rotate(149.61,306.39,456.96)" fill="none" stroke="#b1935d" stroke-width="1.25" opacity="0.52"/>
<ellipse cx="295.43" cy="463.39" rx="5.8" ry="2.4" transform="rotate(149.61,295.43,463.39)" fill="none" stroke="#b1935d" stroke-width="1.25" opacity="0.52"/>
<ellipse cx="284.46" cy="469.83" rx="5.8" ry="2.4" transform="rotate(149.61,284.46,469.83)" fill="none" stroke="#b1935d" stroke-width="1.25" opacity="0.52"/>
<ellipse cx="273.50" cy="476.26" rx="5.8" ry="2.4" transform="rotate(149.61,273.50,476.26)" fill="none" stroke="#b1935d" stroke-width="1.25" opacity="0.52"/>
<ellipse cx="262.53" cy="482.69" rx="5.8" ry="2.4" transform="rotate(149.61,262.53,482.69)" fill="none" stroke="#b1935d" stroke-width="1.25" opacity="0.52"/>
<ellipse cx="251.51" cy="482.74" rx="5.8" ry="2.4" transform="rotate(-150.26,251.51,482.74)" fill="none" stroke="#b1935d" stroke-width="1.25" opacity="0.52"/>
<ellipse cx="240.43" cy="476.41" rx="5.8" ry="2.4" transform="rotate(-150.26,240.43,476.41)" fill="none" stroke="#b1935d" stroke-width="1.25" opacity="0.52"/>
<ellipse cx="229.35" cy="470.08" rx="5.8" ry="2.4" transform="rotate(-150.26,229.35,470.08)" fill="none" stroke="#b1935d" stroke-width="1.25" opacity="0.52"/>
<ellipse cx="218.26" cy="463.75" rx="5.8" ry="2.4" transform="rotate(-150.26,218.26,463.75)" fill="none" stroke="#b1935d" stroke-width="1.25" opacity="0.52"/>
<ellipse cx="207.18" cy="457.42" rx="5.8" ry="2.4" transform="rotate(-150.26,207.18,457.42)" fill="none" stroke="#b1935d" stroke-width="1.25" opacity="0.52"/>
<ellipse cx="196.10" cy="451.09" rx="5.8" ry="2.4" transform="rotate(-150.26,196.10,451.09)" fill="none" stroke="#b1935d" stroke-width="1.25" opacity="0.52"/>
<ellipse cx="185.02" cy="444.75" rx="5.8" ry="2.4" transform="rotate(-150.26,185.02,444.75)" fill="none" stroke="#b1935d" stroke-width="1.25" opacity="0.52"/>
<ellipse cx="173.94" cy="438.42" rx="5.8" ry="2.4" transform="rotate(-150.26,173.94,438.42)" fill="none" stroke="#b1935d" stroke-width="1.25" opacity="0.52"/>
<ellipse cx="162.85" cy="432.09" rx="5.8" ry="2.4" transform="rotate(-150.26,162.85,432.09)" fill="none" stroke="#b1935d" stroke-width="1.25" opacity="0.52"/>
<ellipse cx="151.77" cy="425.76" rx="5.8" ry="2.4" transform="rotate(-150.26,151.77,425.76)" fill="none" stroke="#b1935d" stroke-width="1.25" opacity="0.52"/>
<ellipse cx="140.69" cy="419.43" rx="5.8" ry="2.4" transform="rotate(-150.26,140.69,419.43)" fill="none" stroke="#b1935d" stroke-width="1.25" opacity="0.52"/>
<ellipse cx="129.61" cy="413.10" rx="5.8" ry="2.4" transform="rotate(-150.26,129.61,413.10)" fill="none" stroke="#b1935d" stroke-width="1.25" opacity="0.52"/>
<ellipse cx="118.53" cy="406.77" rx="5.8" ry="2.4" transform="rotate(-150.26,118.53,406.77)" fill="none" stroke="#b1935d" stroke-width="1.25" opacity="0.52"/>
<ellipse cx="107.44" cy="400.44" rx="5.8" ry="2.4" transform="rotate(-150.26,107.44,400.44)" fill="none" stroke="#b1935d" stroke-width="1.25" opacity="0.52"/>
<ellipse cx="96.36" cy="394.11" rx="5.8" ry="2.4" transform="rotate(-150.26,96.36,394.11)" fill="none" stroke="#b1935d" stroke-width="1.25" opacity="0.52"/>
<ellipse cx="85.28" cy="387.78" rx="5.8" ry="2.4" transform="rotate(-150.26,85.28,387.78)" fill="none" stroke="#b1935d" stroke-width="1.25" opacity="0.52"/>
<ellipse cx="74.20" cy="381.45" rx="5.8" ry="2.4" transform="rotate(-150.26,74.20,381.45)" fill="none" stroke="#b1935d" stroke-width="1.25" opacity="0.52"/>
<ellipse cx="63.12" cy="375.12" rx="5.8" ry="2.4" transform="rotate(-150.26,63.12,375.12)" fill="none" stroke="#b1935d" stroke-width="1.25" opacity="0.52"/>
<ellipse cx="57.58" cy="365.86" rx="5.8" ry="2.4" transform="rotate(-90.00,57.58,365.86)" fill="none" stroke="#b1935d" stroke-width="1.25" opacity="0.52"/>
<ellipse cx="57.58" cy="353.67" rx="5.8" ry="2.4" transform="rotate(-90.00,57.58,353.67)" fill="none" stroke="#b1935d" stroke-width="1.25" opacity="0.52"/>
<ellipse cx="57.58" cy="341.48" rx="5.8" ry="2.4" transform="rotate(-90.00,57.58,341.48)" fill="none" stroke="#b1935d" stroke-width="1.25" opacity="0.52"/>
<ellipse cx="57.58" cy="329.30" rx="5.8" ry="2.4" transform="rotate(-90.00,57.58,329.30)" fill="none" stroke="#b1935d" stroke-width="1.25" opacity="0.52"/>
<ellipse cx="57.58" cy="317.11" rx="5.8" ry="2.4" transform="rotate(-90.00,57.58,317.11)" fill="none" stroke="#b1935d" stroke-width="1.25" opacity="0.52"/>
<ellipse cx="57.58" cy="304.92" rx="5.8" ry="2.4" transform="rotate(-90.00,57.58,304.92)" fill="none" stroke="#b1935d" stroke-width="1.25" opacity="0.52"/>
<ellipse cx="57.58" cy="292.74" rx="5.8" ry="2.4" transform="rotate(-90.00,57.58,292.74)" fill="none" stroke="#b1935d" stroke-width="1.25" opacity="0.52"/>
<ellipse cx="57.58" cy="280.55" rx="5.8" ry="2.4" transform="rotate(-90.00,57.58,280.55)" fill="none" stroke="#b1935d" stroke-width="1.25" opacity="0.52"/>
<ellipse cx="57.58" cy="268.36" rx="5.8" ry="2.4" transform="rotate(-90.00,57.58,268.36)" fill="none" stroke="#b1935d" stroke-width="1.25" opacity="0.52"/>
<ellipse cx="57.58" cy="256.18" rx="5.8" ry="2.4" transform="rotate(-90.00,57.58,256.18)" fill="none" stroke="#b1935d" stroke-width="1.25" opacity="0.52"/>
<ellipse cx="57.58" cy="243.99" rx="5.8" ry="2.4" transform="rotate(-90.00,57.58,243.99)" fill="none" stroke="#b1935d" stroke-width="1.25" opacity="0.52"/>
<ellipse cx="57.58" cy="231.80" rx="5.8" ry="2.4" transform="rotate(-90.00,57.58,231.80)" fill="none" stroke="#b1935d" stroke-width="1.25" opacity="0.52"/>
<ellipse cx="57.58" cy="219.62" rx="5.8" ry="2.4" transform="rotate(-90.00,57.58,219.62)" fill="none" stroke="#b1935d" stroke-width="1.25" opacity="0.52"/>
<ellipse cx="57.58" cy="207.43" rx="5.8" ry="2.4" transform="rotate(-90.00,57.58,207.43)" fill="none" stroke="#b1935d" stroke-width="1.25" opacity="0.52"/>
<ellipse cx="57.58" cy="195.24" rx="5.8" ry="2.4" transform="rotate(-90.00,57.58,195.24)" fill="none" stroke="#b1935d" stroke-width="1.25" opacity="0.52"/>
<ellipse cx="57.58" cy="183.06" rx="5.8" ry="2.4" transform="rotate(-90.00,57.58,183.06)" fill="none" stroke="#b1935d" stroke-width="1.25" opacity="0.52"/>
<ellipse cx="57.58" cy="170.87" rx="5.8" ry="2.4" transform="rotate(-90.00,57.58,170.87)" fill="none" stroke="#b1935d" stroke-width="1.25" opacity="0.52"/>
<ellipse cx="57.58" cy="158.68" rx="5.8" ry="2.4" transform="rotate(-90.00,57.58,158.68)" fill="none" stroke="#b1935d" stroke-width="1.25" opacity="0.52"/>
<ellipse cx="57.58" cy="146.50" rx="5.8" ry="2.4" transform="rotate(-90.00,57.58,146.50)" fill="none" stroke="#b1935d" stroke-width="1.25" opacity="0.52"/>
<ellipse cx="63.06" cy="137.24" rx="5.8" ry="2.4" transform="rotate(-30.00,63.06,137.24)" fill="none" stroke="#b1935d" stroke-width="1.25" opacity="0.52"/>
<ellipse cx="74.02" cy="130.91" rx="5.8" ry="2.4" transform="rotate(-30.00,74.02,130.91)" fill="none" stroke="#b1935d" stroke-width="1.25" opacity="0.52"/>
<ellipse cx="84.99" cy="124.58" rx="5.8" ry="2.4" transform="rotate(-30.00,84.99,124.58)" fill="none" stroke="#b1935d" stroke-width="1.25" opacity="0.52"/>
<ellipse cx="95.95" cy="118.25" rx="5.8" ry="2.4" transform="rotate(-30.00,95.95,118.25)" fill="none" stroke="#b1935d" stroke-width="1.25" opacity="0.52"/>
<ellipse cx="106.92" cy="111.92" rx="5.8" ry="2.4" transform="rotate(-30.00,106.92,111.92)" fill="none" stroke="#b1935d" stroke-width="1.25" opacity="0.52"/>
<ellipse cx="117.88" cy="105.59" rx="5.8" ry="2.4" transform="rotate(-30.00,117.88,105.59)" fill="none" stroke="#b1935d" stroke-width="1.25" opacity="0.52"/>
<ellipse cx="128.85" cy="99.25" rx="5.8" ry="2.4" transform="rotate(-30.00,128.85,99.25)" fill="none" stroke="#b1935d" stroke-width="1.25" opacity="0.52"/>
<ellipse cx="139.81" cy="92.92" rx="5.8" ry="2.4" transform="rotate(-30.00,139.81,92.92)" fill="none" stroke="#b1935d" stroke-width="1.25" opacity="0.52"/>
<ellipse cx="150.78" cy="86.59" rx="5.8" ry="2.4" transform="rotate(-30.00,150.78,86.59)" fill="none" stroke="#b1935d" stroke-width="1.25" opacity="0.52"/>
<ellipse cx="161.75" cy="80.26" rx="5.8" ry="2.4" transform="rotate(-30.00,161.75,80.26)" fill="none" stroke="#b1935d" stroke-width="1.25" opacity="0.52"/>
<ellipse cx="172.71" cy="73.93" rx="5.8" ry="2.4" transform="rotate(-30.00,172.71,73.93)" fill="none" stroke="#b1935d" stroke-width="1.25" opacity="0.52"/>
<ellipse cx="183.68" cy="67.60" rx="5.8" ry="2.4" transform="rotate(-30.00,183.68,67.60)" fill="none" stroke="#b1935d" stroke-width="1.25" opacity="0.52"/>
<ellipse cx="194.64" cy="61.27" rx="5.8" ry="2.4" transform="rotate(-30.00,194.64,61.27)" fill="none" stroke="#b1935d" stroke-width="1.25" opacity="0.52"/>
<ellipse cx="205.61" cy="54.94" rx="5.8" ry="2.4" transform="rotate(-30.00,205.61,54.94)" fill="none" stroke="#b1935d" stroke-width="1.25" opacity="0.52"/>
<ellipse cx="216.57" cy="48.61" rx="5.8" ry="2.4" transform="rotate(-30.00,216.57,48.61)" fill="none" stroke="#b1935d" stroke-width="1.25" opacity="0.52"/>
<ellipse cx="227.54" cy="42.28" rx="5.8" ry="2.4" transform="rotate(-30.00,227.54,42.28)" fill="none" stroke="#b1935d" stroke-width="1.25" opacity="0.52"/>
<ellipse cx="238.50" cy="35.95" rx="5.8" ry="2.4" transform="rotate(-30.00,238.50,35.95)" fill="none" stroke="#b1935d" stroke-width="1.25" opacity="0.52"/>
<ellipse cx="249.47" cy="29.62" rx="5.8" ry="2.4" transform="rotate(-30.00,249.47,29.62)" fill="none" stroke="#b1935d" stroke-width="1.25" opacity="0.52"/>
</g>
</g>
</svg>
