<?xml version="1.0" encoding="UTF-8"?>
<svg width="500" height="500" viewBox="0 0 500 500" xmlns="http://www.w3.org/2000/svg">
  <defs>
    <clipPath id="lobeL"><circle cx="150.6" cy="250.0" r="84.0"/></clipPath>
    <clipPath id="lobeR"><circle cx="349.4" cy="250.0" r="84.0"/></clipPath>
  </defs>
  <g clip-path="url(#lobeL)">
    <line x1="132.4" y1="216.4" x2="124.0" y2="199.6" stroke="rgb(200,168,78)" stroke-opacity="0.10" stroke-width="0.7"/>
    <line x1="132.4" y1="216.4" x2="180.0" y2="241.6" stroke="rgb(200,168,78)" stroke-opacity="0.10" stroke-width="0.7"/>
    <line x1="132.4" y1="216.4" x2="101.6" y2="258.4" stroke="rgb(200,168,78)" stroke-opacity="0.10" stroke-width="0.7"/>
    <line x1="132.4" y1="216.4" x2="143.6" y2="194.0" stroke="rgb(200,168,78)" stroke-opacity="0.10" stroke-width="0.7"/>
    <line x1="132.4" y1="216.4" x2="115.6" y2="227.6" stroke="rgb(200,168,78)" stroke-opacity="0.10" stroke-width="0.7"/>
    <line x1="171.6" y1="278.0" x2="199.6" y2="255.6" stroke="rgb(200,168,78)" stroke-opacity="0.10" stroke-width="0.7"/>
    <line x1="171.6" y1="278.0" x2="180.0" y2="241.6" stroke="rgb(200,168,78)" stroke-opacity="0.10" stroke-width="0.7"/>
    <line x1="171.6" y1="278.0" x2="138.0" y2="294.8" stroke="rgb(200,168,78)" stroke-opacity="0.10" stroke-width="0.7"/>
    <line x1="171.6" y1="278.0" x2="208.0" y2="278.0" stroke="rgb(200,168,78)" stroke-opacity="0.10" stroke-width="0.7"/>
    <line x1="115.6" y1="272.4" x2="152.0" y2="300.4" stroke="rgb(200,168,78)" stroke-opacity="0.10" stroke-width="0.7"/>
    <line x1="115.6" y1="272.4" x2="138.0" y2="294.8" stroke="rgb(200,168,78)" stroke-opacity="0.10" stroke-width="0.7"/>
    <line x1="115.6" y1="272.4" x2="96.0" y2="222.0" stroke="rgb(200,168,78)" stroke-opacity="0.10" stroke-width="0.7"/>
    <line x1="115.6" y1="272.4" x2="129.6" y2="250.0" stroke="rgb(200,168,78)" stroke-opacity="0.10" stroke-width="0.7"/>
    <line x1="115.6" y1="272.4" x2="115.6" y2="227.6" stroke="rgb(200,168,78)" stroke-opacity="0.10" stroke-width="0.7"/>
    <line x1="188.4" y1="210.8" x2="152.0" y2="236.0" stroke="rgb(200,168,78)" stroke-opacity="0.10" stroke-width="0.7"/>
    <line x1="188.4" y1="210.8" x2="199.6" y2="255.6" stroke="rgb(200,168,78)" stroke-opacity="0.10" stroke-width="0.7"/>
    <line x1="188.4" y1="210.8" x2="166.0" y2="199.6" stroke="rgb(200,168,78)" stroke-opacity="0.10" stroke-width="0.7"/>
    <line x1="188.4" y1="210.8" x2="143.6" y2="194.0" stroke="rgb(200,168,78)" stroke-opacity="0.10" stroke-width="0.7"/>
    <line x1="367.6" y1="222.0" x2="384.4" y2="266.8" stroke="rgb(200,168,78)" stroke-opacity="0.10" stroke-width="0.7"/>
    <line x1="367.6" y1="222.0" x2="395.6" y2="244.4" stroke="rgb(200,168,78)" stroke-opacity="0.10" stroke-width="0.7"/>
    <line x1="367.6" y1="222.0" x2="348.0" y2="264.0" stroke="rgb(200,168,78)" stroke-opacity="0.10" stroke-width="0.7"/>
    <line x1="367.6" y1="222.0" x2="350.8" y2="199.6" stroke="rgb(200,168,78)" stroke-opacity="0.10" stroke-width="0.7"/>
    <line x1="367.6" y1="222.0" x2="367.6" y2="199.6" stroke="rgb(200,168,78)" stroke-opacity="0.10" stroke-width="0.7"/>
    <line x1="367.6" y1="222.0" x2="398.4" y2="238.8" stroke="rgb(200,168,78)" stroke-opacity="0.10" stroke-width="0.7"/>
    <line x1="367.6" y1="222.0" x2="370.4" y2="250.0" stroke="rgb(200,168,78)" stroke-opacity="0.10" stroke-width="0.7"/>
    <line x1="367.6" y1="222.0" x2="384.4" y2="275.2" stroke="rgb(200,168,78)" stroke-opacity="0.10" stroke-width="0.7"/>
    <line x1="367.6" y1="222.0" x2="328.4" y2="236.0" stroke="rgb(200,168,78)" stroke-opacity="0.10" stroke-width="0.7"/>
    <line x1="328.4" y1="283.6" x2="283.6" y2="261.2" stroke="rgb(200,168,78)" stroke-opacity="0.10" stroke-width="0.7"/>
    <line x1="328.4" y1="283.6" x2="378.8" y2="297.6" stroke="rgb(200,168,78)" stroke-opacity="0.10" stroke-width="0.7"/>
    <line x1="328.4" y1="283.6" x2="300.4" y2="241.6" stroke="rgb(200,168,78)" stroke-opacity="0.10" stroke-width="0.7"/>
    <line x1="384.4" y1="266.8" x2="378.8" y2="297.6" stroke="rgb(200,168,78)" stroke-opacity="0.10" stroke-width="0.7"/>
    <line x1="384.4" y1="266.8" x2="404.0" y2="278.0" stroke="rgb(200,168,78)" stroke-opacity="0.10" stroke-width="0.7"/>
    <line x1="384.4" y1="266.8" x2="398.4" y2="238.8" stroke="rgb(200,168,78)" stroke-opacity="0.10" stroke-width="0.7"/>
    <line x1="317.2" y1="216.4" x2="350.8" y2="199.6" stroke="rgb(200,168,78)" stroke-opacity="0.10" stroke-width="0.7"/>
    <line x1="317.2" y1="216.4" x2="322.8" y2="258.4" stroke="rgb(200,168,78)" stroke-opacity="0.10" stroke-width="0.7"/>
    <line x1="317.2" y1="216.4" x2="306.0" y2="208.0" stroke="rgb(200,168,78)" stroke-opacity="0.10" stroke-width="0.7"/>
    <line x1="317.2" y1="216.4" x2="328.4" y2="236.0" stroke="rgb(200,168,78)" stroke-opacity="0.10" stroke-width="0.7"/>
    <line x1="317.2" y1="216.4" x2="294.8" y2="222.0" stroke="rgb(200,168,78)" stroke-opacity="0.10" stroke-width="0.7"/>
    <line x1="283.6" y1="261.2" x2="294.8" y2="266.8" stroke="rgb(200,168,78)" stroke-opacity="0.10" stroke-width="0.7"/>
    <line x1="283.6" y1="261.2" x2="328.4" y2="236.0" stroke="rgb(200,168,78)" stroke-opacity="0.10" stroke-width="0.7"/>
    <line x1="283.6" y1="261.2" x2="294.8" y2="222.0" stroke="rgb(200,168,78)" stroke-opacity="0.10" stroke-width="0.7"/>
    <line x1="104.4" y1="241.6" x2="96.0" y2="222.0" stroke="rgb(200,168,78)" stroke-opacity="0.10" stroke-width="0.7"/>
    <line x1="152.0" y1="236.0" x2="180.0" y2="241.6" stroke="rgb(200,168,78)" stroke-opacity="0.10" stroke-width="0.7"/>
    <line x1="152.0" y1="236.0" x2="129.6" y2="250.0" stroke="rgb(200,168,78)" stroke-opacity="0.10" stroke-width="0.7"/>
    <line x1="152.0" y1="236.0" x2="171.6" y2="258.4" stroke="rgb(200,168,78)" stroke-opacity="0.10" stroke-width="0.7"/>
    <line x1="152.0" y1="300.4" x2="138.0" y2="294.8" stroke="rgb(200,168,78)" stroke-opacity="0.10" stroke-width="0.7"/>
    <line x1="199.6" y1="255.6" x2="171.6" y2="258.4" stroke="rgb(200,168,78)" stroke-opacity="0.10" stroke-width="0.7"/>
    <line x1="395.6" y1="244.4" x2="390.0" y2="210.8" stroke="rgb(200,168,78)" stroke-opacity="0.10" stroke-width="0.7"/>
    <line x1="348.0" y1="264.0" x2="322.8" y2="258.4" stroke="rgb(200,168,78)" stroke-opacity="0.10" stroke-width="0.7"/>
    <line x1="378.8" y1="297.6" x2="384.4" y2="275.2" stroke="rgb(200,168,78)" stroke-opacity="0.10" stroke-width="0.7"/>
    <line x1="300.4" y1="241.6" x2="294.8" y2="222.0" stroke="rgb(200,168,78)" stroke-opacity="0.10" stroke-width="0.7"/>
    <line x1="390.0" y1="210.8" x2="398.4" y2="238.8" stroke="rgb(200,168,78)" stroke-opacity="0.10" stroke-width="0.7"/>
    <line x1="166.0" y1="199.6" x2="143.6" y2="194.0" stroke="rgb(200,168,78)" stroke-opacity="0.10" stroke-width="0.7"/>
    <line x1="194.0" y1="292.0" x2="208.0" y2="278.0" stroke="rgb(200,168,78)" stroke-opacity="0.10" stroke-width="0.7"/>
    <line x1="334.0" y1="300.4" x2="356.4" y2="306.0" stroke="rgb(200,168,78)" stroke-opacity="0.10" stroke-width="0.7"/>
    <line x1="194.0" y1="292.0" x2="398.4" y2="238.8" stroke="rgb(200,168,78)" stroke-opacity="0.10" stroke-width="0.7"/>
    <line x1="350.8" y1="199.6" x2="104.4" y2="241.6" stroke="rgb(200,168,78)" stroke-opacity="0.10" stroke-width="0.7"/>
    <line x1="115.6" y1="272.4" x2="317.2" y2="216.4" stroke="rgb(200,168,78)" stroke-opacity="0.10" stroke-width="0.7"/>
    <line x1="166.0" y1="199.6" x2="370.4" y2="250.0" stroke="rgb(200,168,78)" stroke-opacity="0.10" stroke-width="0.7"/>
    <circle cx="132.4" cy="216.4" r="3.8" fill="rgb(200,168,78)" fill-opacity="0.18"/>
    <circle cx="171.6" cy="278.0" r="4.1" fill="rgb(200,168,78)" fill-opacity="0.18"/>
    <circle cx="115.6" cy="272.4" r="3.6" fill="rgb(200,168,78)" fill-opacity="0.18"/>
    <circle cx="188.4" cy="210.8" r="4.3" fill="rgb(200,168,78)" fill-opacity="0.18"/>
    <circle cx="367.6" cy="222.0" r="3.7" fill="rgb(200,168,78)" fill-opacity="0.18"/>
    <circle cx="328.4" cy="283.6" r="4.1" fill="rgb(200,168,78)" fill-opacity="0.18"/>
    <circle cx="384.4" cy="266.8" r="3.5" fill="rgb(200,168,78)" fill-opacity="0.18"/>
    <circle cx="317.2" cy="216.4" r="3.5" fill="rgb(200,168,78)" fill-opacity="0.18"/>
    <circle cx="216.4" cy="238.8" r="4.2" fill="rgb(200,168,78)" fill-opacity="0.18"/>
    <circle cx="283.6" cy="261.2" r="3.8" fill="rgb(200,168,78)" fill-opacity="0.18"/>
    <circle cx="104.4" cy="241.6" r="2.1" fill="rgb(200,168,78)" fill-opacity="0.18"/>
    <circle cx="152.0" cy="236.0" r="2.4" fill="rgb(200,168,78)" fill-opacity="0.18"/>
    <circle cx="152.0" cy="300.4" r="2.7" fill="rgb(200,168,78)" fill-opacity="0.18"/>
    <circle cx="124.0" cy="199.6" r="2.0" fill="rgb(200,168,78)" fill-opacity="0.18"/>
    <circle cx="199.6" cy="255.6" r="2.4" fill="rgb(200,168,78)" fill-opacity="0.18"/>
    <circle cx="180.0" cy="241.6" r="2.2" fill="rgb(200,168,78)" fill-opacity="0.18"/>
    <circle cx="138.0" cy="294.8" r="2.4" fill="rgb(200,168,78)" fill-opacity="0.18"/>
    <circle cx="110.0" cy="292.0" r="2.7" fill="rgb(200,168,78)" fill-opacity="0.18"/>
    <circle cx="395.6" cy="244.4" r="1.8" fill="rgb(200,168,78)" fill-opacity="0.18"/>
    <circle cx="348.0" cy="264.0" r="2.4" fill="rgb(200,168,78)" fill-opacity="0.18"/>
    <circle cx="350.8" cy="199.6" r="2.1" fill="rgb(200,168,78)" fill-opacity="0.18"/>
    <circle cx="378.8" cy="297.6" r="2.4" fill="rgb(200,168,78)" fill-opacity="0.18"/>
    <circle cx="300.4" cy="241.6" r="2.6" fill="rgb(200,168,78)" fill-opacity="0.18"/>
    <circle cx="322.8" cy="258.4" r="1.8" fill="rgb(200,168,78)" fill-opacity="0.18"/>
    <circle cx="367.6" cy="199.6" r="1.8" fill="rgb(200,168,78)" fill-opacity="0.18"/>
    <circle cx="390.0" cy="210.8" r="2.1" fill="rgb(200,168,78)" fill-opacity="0.18"/>
    <circle cx="96.0" cy="222.0" r="0.8" fill="rgb(200,168,78)" fill-opacity="0.18"/>
    <circle cx="166.0" cy="199.6" r="0.9" fill="rgb(200,168,78)" fill-opacity="0.18"/>
    <circle cx="205.2" cy="227.6" r="1.0" fill="rgb(200,168,78)" fill-opacity="0.18"/>
    <circle cx="101.6" cy="258.4" r="0.8" fill="rgb(200,168,78)" fill-opacity="0.18"/>
    <circle cx="129.6" cy="250.0" r="1.2" fill="rgb(200,168,78)" fill-opacity="0.18"/>
    <circle cx="194.0" cy="292.0" r="1.2" fill="rgb(200,168,78)" fill-opacity="0.18"/>
    <circle cx="143.6" cy="194.0" r="1.0" fill="rgb(200,168,78)" fill-opacity="0.18"/>
    <circle cx="115.6" cy="227.6" r="0.9" fill="rgb(200,168,78)" fill-opacity="0.18"/>
    <circle cx="171.6" cy="258.4" r="0.8" fill="rgb(200,168,78)" fill-opacity="0.18"/>
    <circle cx="208.0" cy="278.0" r="1.0" fill="rgb(200,168,78)" fill-opacity="0.18"/>
    <circle cx="404.0" cy="278.0" r="0.9" fill="rgb(200,168,78)" fill-opacity="0.18"/>
    <circle cx="334.0" cy="300.4" r="0.9" fill="rgb(200,168,78)" fill-opacity="0.18"/>
    <circle cx="294.8" cy="266.8" r="1.3" fill="rgb(200,168,78)" fill-opacity="0.18"/>
    <circle cx="398.4" cy="238.8" r="0.9" fill="rgb(200,168,78)" fill-opacity="0.18"/>
    <circle cx="370.4" cy="250.0" r="0.7" fill="rgb(200,168,78)" fill-opacity="0.18"/>
    <circle cx="306.0" cy="208.0" r="0.9" fill="rgb(200,168,78)" fill-opacity="0.18"/>
    <circle cx="356.4" cy="306.0" r="0.7" fill="rgb(200,168,78)" fill-opacity="0.18"/>
    <circle cx="384.4" cy="275.2" r="1.3" fill="rgb(200,168,78)" fill-opacity="0.18"/>
    <circle cx="328.4" cy="236.0" r="1.3" fill="rgb(200,168,78)" fill-opacity="0.18"/>
    <circle cx="294.8" cy="222.0" r="0.9" fill="rgb(200,168,78)" fill-opacity="0.18"/>
  </g>
  <g clip-path="url(#lobeR)">
    <line x1="132.4" y1="216.4" x2="124.0" y2="199.6" stroke="rgb(200,168,78)" stroke-opacity="0.10" stroke-width="0.7"/>
    <line x1="132.4" y1="216.4" x2="180.0" y2="241.6" stroke="rgb(200,168,78)" stroke-opacity="0.10" stroke-width="0.7"/>
    <line x1="132.4" y1="216.4" x2="101.6" y2="258.4" stroke="rgb(200,168,78)" stroke-opacity="0.10" stroke-width="0.7"/>
    <line x1="132.4" y1="216.4" x2="143.6" y2="194.0" stroke="rgb(200,168,78)" stroke-opacity="0.10" stroke-width="0.7"/>
    <line x1="132.4" y1="216.4" x2="115.6" y2="227.6" stroke="rgb(200,168,78)" stroke-opacity="0.10" stroke-width="0.7"/>
    <line x1="171.6" y1="278.0" x2="199.6" y2="255.6" stroke="rgb(200,168,78)" stroke-opacity="0.10" stroke-width="0.7"/>
    <line x1="171.6" y1="278.0" x2="180.0" y2="241.6" stroke="rgb(200,168,78)" stroke-opacity="0.10" stroke-width="0.7"/>
    <line x1="171.6" y1="278.0" x2="138.0" y2="294.8" stroke="rgb(200,168,78)" stroke-opacity="0.10" stroke-width="0.7"/>
    <line x1="171.6" y1="278.0" x2="208.0" y2="278.0" stroke="rgb(200,168,78)" stroke-opacity="0.10" stroke-width="0.7"/>
    <line x1="115.6" y1="272.4" x2="152.0" y2="300.4" stroke="rgb(200,168,78)" stroke-opacity="0.10" stroke-width="0.7"/>
    <line x1="115.6" y1="272.4" x2="138.0" y2="294.8" stroke="rgb(200,168,78)" stroke-opacity="0.10" stroke-width="0.7"/>
    <line x1="115.6" y1="272.4" x2="96.0" y2="222.0" stroke="rgb(200,168,78)" stroke-opacity="0.10" stroke-width="0.7"/>
    <line x1="115.6" y1="272.4" x2="129.6" y2="250.0" stroke="rgb(200,168,78)" stroke-opacity="0.10" stroke-width="0.7"/>
    <line x1="115.6" y1="272.4" x2="115.6" y2="227.6" stroke="rgb(200,168,78)" stroke-opacity="0.10" stroke-width="0.7"/>
    <line x1="188.4" y1="210.8" x2="152.0" y2="236.0" stroke="rgb(200,168,78)" stroke-opacity="0.10" stroke-width="0.7"/>
    <line x1="188.4" y1="210.8" x2="199.6" y2="255.6" stroke="rgb(200,168,78)" stroke-opacity="0.10" stroke-width="0.7"/>
    <line x1="188.4" y1="210.8" x2="166.0" y2="199.6" stroke="rgb(200,168,78)" stroke-opacity="0.10" stroke-width="0.7"/>
    <line x1="188.4" y1="210.8" x2="143.6" y2="194.0" stroke="rgb(200,168,78)" stroke-opacity="0.10" stroke-width="0.7"/>
    <line x1="367.6" y1="222.0" x2="384.4" y2="266.8" stroke="rgb(200,168,78)" stroke-opacity="0.10" stroke-width="0.7"/>
    <line x1="367.6" y1="222.0" x2="395.6" y2="244.4" stroke="rgb(200,168,78)" stroke-opacity="0.10" stroke-width="0.7"/>
    <line x1="367.6" y1="222.0" x2="348.0" y2="264.0" stroke="rgb(200,168,78)" stroke-opacity="0.10" stroke-width="0.7"/>
    <line x1="367.6" y1="222.0" x2="350.8" y2="199.6" stroke="rgb(200,168,78)" stroke-opacity="0.10" stroke-width="0.7"/>
    <line x1="367.6" y1="222.0" x2="367.6" y2="199.6" stroke="rgb(200,168,78)" stroke-opacity="0.10" stroke-width="0.7"/>
    <line x1="367.6" y1="222.0" x2="398.4" y2="238.8" stroke="rgb(200,168,78)" stroke-opacity="0.10" stroke-width="0.7"/>
    <line x1="367.6" y1="222.0" x2="370.4" y2="250.0" stroke="rgb(200,168,78)" stroke-opacity="0.10" stroke-width="0.7"/>
    <line x1="367.6" y1="222.0" x2="384.4" y2="275.2" stroke="rgb(200,168,78)" stroke-opacity="0.10" stroke-width="0.7"/>
    <line x1="367.6" y1="222.0" x2="328.4" y2="236.0" stroke="rgb(200,168,78)" stroke-opacity="0.10" stroke-width="0.7"/>
    <line x1="328.4" y1="283.6" x2="283.6" y2="261.2" stroke="rgb(200,168,78)" stroke-opacity="0.10" stroke-width="0.7"/>
    <line x1="328.4" y1="283.6" x2="378.8" y2="297.6" stroke="rgb(200,168,78)" stroke-opacity="0.10" stroke-width="0.7"/>
    <line x1="328.4" y1="283.6" x2="300.4" y2="241.6" stroke="rgb(200,168,78)" stroke-opacity="0.10" stroke-width="0.7"/>
    <line x1="384.4" y1="266.8" x2="378.8" y2="297.6" stroke="rgb(200,168,78)" stroke-opacity="0.10" stroke-width="0.7"/>
    <line x1="384.4" y1="266.8" x2="404.0" y2="278.0" stroke="rgb(200,168,78)" stroke-opacity="0.10" stroke-width="0.7"/>
    <line x1="384.4" y1="266.8" x2="398.4" y2="238.8" stroke="rgb(200,168,78)" stroke-opacity="0.10" stroke-width="0.7"/>
    <line x1="317.2" y1="216.4" x2="350.8" y2="199.6" stroke="rgb(200,168,78)" stroke-opacity="0.10" stroke-width="0.7"/>
    <line x1="317.2" y1="216.4" x2="322.8" y2="258.4" stroke="rgb(200,168,78)" stroke-opacity="0.10" stroke-width="0.7"/>
    <line x1="317.2" y1="216.4" x2="306.0" y2="208.0" stroke="rgb(200,168,78)" stroke-opacity="0.10" stroke-width="0.7"/>
    <line x1="317.2" y1="216.4" x2="328.4" y2="236.0" stroke="rgb(200,168,78)" stroke-opacity="0.10" stroke-width="0.7"/>
    <line x1="317.2" y1="216.4" x2="294.8" y2="222.0" stroke="rgb(200,168,78)" stroke-opacity="0.10" stroke-width="0.7"/>
    <line x1="283.6" y1="261.2" x2="294.8" y2="266.8" stroke="rgb(200,168,78)" stroke-opacity="0.10" stroke-width="0.7"/>
    <line x1="283.6" y1="261.2" x2="328.4" y2="236.0" stroke="rgb(200,168,78)" stroke-opacity="0.10" stroke-width="0.7"/>
    <line x1="283.6" y1="261.2" x2="294.8" y2="222.0" stroke="rgb(200,168,78)" stroke-opacity="0.10" stroke-width="0.7"/>
    <line x1="104.4" y1="241.6" x2="96.0" y2="222.0" stroke="rgb(200,168,78)" stroke-opacity="0.10" stroke-width="0.7"/>
    <line x1="152.0" y1="236.0" x2="180.0" y2="241.6" stroke="rgb(200,168,78)" stroke-opacity="0.10" stroke-width="0.7"/>
    <line x1="152.0" y1="236.0" x2="129.6" y2="250.0" stroke="rgb(200,168,78)" stroke-opacity="0.10" stroke-width="0.7"/>
    <line x1="152.0" y1="236.0" x2="171.6" y2="258.4" stroke="rgb(200,168,78)" stroke-opacity="0.10" stroke-width="0.7"/>
    <line x1="152.0" y1="300.4" x2="138.0" y2="294.8" stroke="rgb(200,168,78)" stroke-opacity="0.10" stroke-width="0.7"/>
    <line x1="199.6" y1="255.6" x2="171.6" y2="258.4" stroke="rgb(200,168,78)" stroke-opacity="0.10" stroke-width="0.7"/>
    <line x1="395.6" y1="244.4" x2="390.0" y2="210.8" stroke="rgb(200,168,78)" stroke-opacity="0.10" stroke-width="0.7"/>
    <line x1="348.0" y1="264.0" x2="322.8" y2="258.4" stroke="rgb(200,168,78)" stroke-opacity="0.10" stroke-width="0.7"/>
    <line x1="378.8" y1="297.6" x2="384.4" y2="275.2" stroke="rgb(200,168,78)" stroke-opacity="0.10" stroke-width="0.7"/>
    <line x1="300.4" y1="241.6" x2="294.8" y2="222.0" stroke="rgb(200,168,78)" stroke-opacity="0.10" stroke-width="0.7"/>
    <line x1="390.0" y1="210.8" x2="398.4" y2="238.8" stroke="rgb(200,168,78)" stroke-opacity="0.10" stroke-width="0.7"/>
    <line x1="166.0" y1="199.6" x2="143.6" y2="194.0" stroke="rgb(200,168,78)" stroke-opacity="0.10" stroke-width="0.7"/>
    <line x1="194.0" y1="292.0" x2="208.0" y2="278.0" stroke="rgb(200,168,78)" stroke-opacity="0.10" stroke-width="0.7"/>
    <line x1="334.0" y1="300.4" x2="356.4" y2="306.0" stroke="rgb(200,168,78)" stroke-opacity="0.10" stroke-width="0.7"/>
    <line x1="194.0" y1="292.0" x2="398.4" y2="238.8" stroke="rgb(200,168,78)" stroke-opacity="0.10" stroke-width="0.7"/>
    <line x1="350.8" y1="199.6" x2="104.4" y2="241.6" stroke="rgb(200,168,78)" stroke-opacity="0.10" stroke-width="0.7"/>
    <line x1="115.6" y1="272.4" x2="317.2" y2="216.4" stroke="rgb(200,168,78)" stroke-opacity="0.10" stroke-width="0.7"/>
    <line x1="166.0" y1="199.6" x2="370.4" y2="250.0" stroke="rgb(200,168,78)" stroke-opacity="0.10" stroke-width="0.7"/>
    <circle cx="132.4" cy="216.4" r="3.8" fill="rgb(200,168,78)" fill-opacity="0.18"/>
    <circle cx="171.6" cy="278.0" r="4.1" fill="rgb(200,168,78)" fill-opacity="0.18"/>
    <circle cx="115.6" cy="272.4" r="3.6" fill="rgb(200,168,78)" fill-opacity="0.18"/>
    <circle cx="188.4" cy="210.8" r="4.3" fill="rgb(200,168,78)" fill-opacity="0.18"/>
    <circle cx="367.6" cy="222.0" r="3.7" fill="rgb(200,168,78)" fill-opacity="0.18"/>
    <circle cx="328.4" cy="283.6" r="4.1" fill="rgb(200,168,78)" fill-opacity="0.18"/>
    <circle cx="384.4" cy="266.8" r="3.5" fill="rgb(200,168,78)" fill-opacity="0.18"/>
    <circle cx="317.2" cy="216.4" r="3.5" fill="rgb(200,168,78)" fill-opacity="0.18"/>
    <circle cx="216.4" cy="238.8" r="4.2" fill="rgb(200,168,78)" fill-opacity="0.18"/>
    <circle cx="283.6" cy="261.2" r="3.8" fill="rgb(200,168,78)" fill-opacity="0.18"/>
    <circle cx="104.4" cy="241.6" r="2.1" fill="rgb(200,168,78)" fill-opacity="0.18"/>
    <circle cx="152.0" cy="236.0" r="2.4" fill="rgb(200,168,78)" fill-opacity="0.18"/>
    <circle cx="152.0" cy="300.4" r="2.7" fill="rgb(200,168,78)" fill-opacity="0.18"/>
    <circle cx="124.0" cy="199.6" r="2.0" fill="rgb(200,168,78)" fill-opacity="0.18"/>
    <circle cx="199.6" cy="255.6" r="2.4" fill="rgb(200,168,78)" fill-opacity="0.18"/>
    <circle cx="180.0" cy="241.6" r="2.2" fill="rgb(200,168,78)" fill-opacity="0.18"/>
    <circle cx="138.0" cy="294.8" r="2.4" fill="rgb(200,168,78)" fill-opacity="0.18"/>
    <circle cx="110.0" cy="292.0" r="2.7" fill="rgb(200,168,78)" fill-opacity="0.18"/>
    <circle cx="395.6" cy="244.4" r="1.8" fill="rgb(200,168,78)" fill-opacity="0.18"/>
    <circle cx="348.0" cy="264.0" r="2.4" fill="rgb(200,168,78)" fill-opacity="0.18"/>
    <circle cx="350.8" cy="199.6" r="2.1" fill="rgb(200,168,78)" fill-opacity="0.18"/>
    <circle cx="378.8" cy="297.6" r="2.4" fill="rgb(200,168,78)" fill-opacity="0.18"/>
    <circle cx="300.4" cy="241.6" r="2.6" fill="rgb(200,168,78)" fill-opacity="0.18"/>
    <circle cx="322.8" cy="258.4" r="1.8" fill="rgb(200,168,78)" fill-opacity="0.18"/>
    <circle cx="367.6" cy="199.6" r="1.8" fill="rgb(200,168,78)" fill-opacity="0.18"/>
    <circle cx="390.0" cy="210.8" r="2.1" fill="rgb(200,168,78)" fill-opacity="0.18"/>
    <circle cx="96.0" cy="222.0" r="0.8" fill="rgb(200,168,78)" fill-opacity="0.18"/>
    <circle cx="166.0" cy="199.6" r="0.9" fill="rgb(200,168,78)" fill-opacity="0.18"/>
    <circle cx="205.2" cy="227.6" r="1.0" fill="rgb(200,168,78)" fill-opacity="0.18"/>
    <circle cx="101.6" cy="258.4" r="0.8" fill="rgb(200,168,78)" fill-opacity="0.18"/>
    <circle cx="129.6" cy="250.0" r="1.2" fill="rgb(200,168,78)" fill-opacity="0.18"/>
    <circle cx="194.0" cy="292.0" r="1.2" fill="rgb(200,168,78)" fill-opacity="0.18"/>
    <circle cx="143.6" cy="194.0" r="1.0" fill="rgb(200,168,78)" fill-opacity="0.18"/>
    <circle cx="115.6" cy="227.6" r="0.9" fill="rgb(200,168,78)" fill-opacity="0.18"/>
    <circle cx="171.6" cy="258.4" r="0.8" fill="rgb(200,168,78)" fill-opacity="0.18"/>
    <circle cx="208.0" cy="278.0" r="1.0" fill="rgb(200,168,78)" fill-opacity="0.18"/>
    <circle cx="404.0" cy="278.0" r="0.9" fill="rgb(200,168,78)" fill-opacity="0.18"/>
    <circle cx="334.0" cy="300.4" r="0.9" fill="rgb(200,168,78)" fill-opacity="0.18"/>
    <circle cx="294.8" cy="266.8" r="1.3" fill="rgb(200,168,78)" fill-opacity="0.18"/>
    <circle cx="398.4" cy="238.8" r="0.9" fill="rgb(200,168,78)" fill-opacity="0.18"/>
    <circle cx="370.4" cy="250.0" r="0.7" fill="rgb(200,168,78)" fill-opacity="0.18"/>
    <circle cx="306.0" cy="208.0" r="0.9" fill="rgb(200,168,78)" fill-opacity="0.18"/>
    <circle cx="356.4" cy="306.0" r="0.7" fill="rgb(200,168,78)" fill-opacity="0.18"/>
    <circle cx="384.4" cy="275.2" r="1.3" fill="rgb(200,168,78)" fill-opacity="0.18"/>
    <circle cx="328.4" cy="236.0" r="1.3" fill="rgb(200,168,78)" fill-opacity="0.18"/>
    <circle cx="294.8" cy="222.0" r="0.9" fill="rgb(200,168,78)" fill-opacity="0.18"/>
  </g>
  <circle cx="250.0" cy="250.0" r="7" fill="rgb(200,168,78)" fill-opacity="0.35"/>
  <circle cx="250.0" cy="250.0" r="4" fill="rgb(200,168,78)" fill-opacity="0.20"/>
  <polygon points="98.7,255.7 93.3,246.1 87.5,255.5 93.2,251.7" fill="rgb(200,168,78)"/>
  <polygon points="98.7,245.7 94.4,235.3 87.4,244.1 93.6,240.9" fill="rgb(200,168,78)"/>
  <polygon points="99.9,235.7 96.7,224.8 88.6,232.8 95.2,230.4" fill="rgb(200,168,78)"/>
  <polygon points="102.1,226.1 100.1,214.6 91.0,221.8 98.0,220.1" fill="rgb(200,168,78)"/>
  <polygon points="105.4,216.9 104.6,205.1 94.5,211.3 101.9,210.4" fill="rgb(200,168,78)"/>
  <polygon points="109.5,208.2 110.0,196.3 99.1,201.5 106.6,201.3" fill="rgb(200,168,78)"/>
  <polygon points="114.4,200.3 116.1,188.3 104.6,192.3 112.2,193.0" fill="rgb(200,168,78)"/>
  <polygon points="119.9,193.2 122.9,181.2 110.8,184.1 118.5,185.5" fill="rgb(200,168,78)"/>
  <polygon points="125.8,186.9 130.1,175.1 117.6,176.7 125.2,179.0" fill="rgb(200,168,78)"/>
  <polygon points="132.1,181.4 137.5,169.9 124.8,170.3 132.2,173.4" fill="rgb(200,168,78)"/>
  <polygon points="138.5,176.8 145.2,165.8 132.3,164.8 139.4,168.8" fill="rgb(200,168,78)"/>
  <polygon points="144.9,173.1 152.8,162.7 140.0,160.3 146.7,165.1" fill="rgb(200,168,78)"/>
  <polygon points="154.5,169.0 164.1,159.8 151.5,155.3 157.6,161.2" fill="rgb(200,168,78)"/>
  <polygon points="163.7,166.6 174.8,158.9 163.0,152.3 168.1,159.2" fill="rgb(200,168,78)"/>
  <polygon points="172.4,165.6 184.9,159.7 174.0,151.1 178.1,158.9" fill="rgb(200,168,78)"/>
  <polygon points="180.6,166.0 194.1,162.0 184.6,151.7 187.4,160.1" fill="rgb(200,168,78)"/>
  <polygon points="188.3,167.5 202.4,165.5 194.4,153.7 195.9,162.7" fill="rgb(200,168,78)"/>
  <polygon points="195.4,170.1 209.8,170.1 203.6,157.1 203.8,166.3" fill="rgb(200,168,78)"/>
  <polygon points="201.9,173.7 216.4,175.5 211.8,161.6 210.9,170.9" fill="rgb(200,168,78)"/>
  <polygon points="207.9,178.0 222.3,181.5 219.3,167.1 217.2,176.3" fill="rgb(200,168,78)"/>
  <polygon points="213.4,183.1 227.5,188.1 226.0,173.2 222.9,182.3" fill="rgb(200,168,78)"/>
  <polygon points="218.4,188.9 232.1,195.1 231.9,180.0 228.0,188.9" fill="rgb(200,168,78)"/>
  <polygon points="222.8,195.1 236.1,202.4 237.1,187.2 232.5,195.8" fill="rgb(200,168,78)"/>
  <polygon points="226.8,201.7 239.7,209.9 241.7,194.7 236.5,203.1" fill="rgb(200,168,78)"/>
  <polygon points="230.3,208.6 242.7,217.7 245.7,202.6 240.0,210.6" fill="rgb(200,168,78)"/>
  <polygon points="248.6,283.2 261.2,292.1 263.9,276.9 258.3,285.0" fill="rgb(200,168,78)"/>
  <polygon points="251.8,291.5 264.8,299.5 266.5,284.3 261.5,292.7" fill="rgb(200,168,78)"/>
  <polygon points="255.5,299.6 269.0,306.7 269.6,291.5 265.2,300.2" fill="rgb(200,168,78)"/>
  <polygon points="259.8,307.6 273.7,313.5 273.1,298.4 269.4,307.4" fill="rgb(200,168,78)"/>
  <polygon points="264.7,315.3 278.9,319.8 277.0,305.0 274.2,314.2" fill="rgb(200,168,78)"/>
  <polygon points="270.4,322.6 284.8,325.6 281.4,311.3 279.6,320.5" fill="rgb(200,168,78)"/>
  <polygon points="276.8,329.4 291.4,330.7 286.3,317.0 285.7,326.3" fill="rgb(200,168,78)"/>
  <polygon points="284.2,335.5 298.7,335.0 291.9,322.2 292.5,331.4" fill="rgb(200,168,78)"/>
  <polygon points="292.6,340.8 306.6,338.3 298.2,326.8 300.1,335.7" fill="rgb(200,168,78)"/>
  <polygon points="302.0,345.0 315.3,340.4 305.4,330.5 308.5,338.8" fill="rgb(200,168,78)"/>
  <polygon points="312.4,347.7 324.6,341.2 313.4,333.1 317.8,340.7" fill="rgb(200,168,78)"/>
  <polygon points="323.7,348.7 334.5,340.4 322.3,334.4 327.8,341.1" fill="rgb(200,168,78)"/>
  <polygon points="335.7,347.7 344.9,338.1 332.1,334.2 338.5,339.7" fill="rgb(200,168,78)"/>
  <polygon points="348.1,344.6 355.6,333.8 342.6,332.0 349.6,336.5" fill="rgb(200,168,78)"/>
  <polygon points="356.5,341.2 362.7,329.9 349.8,329.5 357.1,333.1" fill="rgb(200,168,78)"/>
  <polygon points="364.8,336.8 369.8,325.1 357.1,326.0 364.6,328.8" fill="rgb(200,168,78)"/>
  <polygon points="372.9,331.3 376.6,319.3 364.3,321.5 371.9,323.5" fill="rgb(200,168,78)"/>
  <polygon points="380.7,324.7 383.2,312.6 371.3,316.0 378.9,317.2" fill="rgb(200,168,78)"/>
  <polygon points="388.0,317.1 389.2,305.0 377.9,309.6 385.5,309.9" fill="rgb(200,168,78)"/>
  <polygon points="394.6,308.6 394.5,296.6 383.9,302.3 391.4,301.8" fill="rgb(200,168,78)"/>
  <polygon points="400.4,299.2 399.1,287.4 389.3,294.1 396.6,292.8" fill="rgb(200,168,78)"/>
  <polygon points="405.2,289.0 402.6,277.6 393.9,285.3 400.8,283.2" fill="rgb(200,168,78)"/>
  <polygon points="408.9,278.2 405.2,267.4 397.5,275.8 404.0,273.0" fill="rgb(200,168,78)"/>
  <polygon points="411.4,266.9 406.5,256.8 400.0,265.9 406.0,262.5" fill="rgb(200,168,78)"/>
  <polygon points="412.7,249.8 406.3,240.7 401.5,250.7 406.8,246.3" fill="rgb(200,168,78)"/>
  <polygon points="412.2,238.4 404.6,230.0 400.9,240.7 405.8,235.6" fill="rgb(200,168,78)"/>
  <polygon points="410.4,227.3 401.8,219.6 399.2,230.9 403.5,225.2" fill="rgb(200,168,78)"/>
  <polygon points="407.4,216.5 397.8,209.8 396.4,221.4 400.2,215.2" fill="rgb(200,168,78)"/>
  <polygon points="403.3,206.3 392.8,200.6 392.7,212.5 395.9,205.8" fill="rgb(200,168,78)"/>
  <polygon points="398.2,196.8 387.1,192.2 388.2,204.2 390.7,197.0" fill="rgb(200,168,78)"/>
  <polygon points="392.4,188.1 380.6,184.6 382.9,196.6 384.7,189.2" fill="rgb(200,168,78)"/>
  <polygon points="385.8,180.3 373.6,178.0 377.2,189.9 378.2,182.2" fill="rgb(200,168,78)"/>
  <polygon points="378.8,173.4 366.2,172.4 371.1,184.0 371.3,176.1" fill="rgb(200,168,78)"/>
  <polygon points="371.5,167.5 358.7,167.8 364.8,179.0 364.2,171.0" fill="rgb(200,168,78)"/>
  <polygon points="363.9,162.5 351.0,164.1 358.3,174.9 356.9,166.8" fill="rgb(200,168,78)"/>
  <polygon points="356.2,158.5 343.4,161.5 351.9,171.6 349.6,163.5" fill="rgb(200,168,78)"/>
  <polygon points="344.6,154.1 332.3,159.3 342.4,168.0 338.8,160.3" fill="rgb(200,168,78)"/>
  <polygon points="333.3,151.7 321.7,158.9 333.3,166.1 328.5,158.9" fill="rgb(200,168,78)"/>
  <polygon points="322.4,151.1 312.0,160.3 324.8,165.6 318.8,159.2" fill="rgb(200,168,78)"/>
  <polygon points="312.1,152.2 303.1,163.0 316.8,166.4 309.7,160.9" fill="rgb(200,168,78)"/>
  <polygon points="302.4,154.7 295.0,167.0 309.3,168.3 301.4,163.8" fill="rgb(200,168,78)"/>
  <polygon points="293.6,158.5 287.9,171.8 302.4,171.2 293.8,167.8" fill="rgb(200,168,78)"/>
  <polygon points="285.6,163.3 281.5,177.5 296.0,175.0 286.9,172.6" fill="rgb(200,168,78)"/>
  <polygon points="278.4,169.0 275.9,183.7 290.2,179.7 280.8,178.2" fill="rgb(200,168,78)"/>
  <polygon points="272.0,175.4 270.9,190.4 284.9,185.0 275.3,184.4" fill="rgb(200,168,78)"/>
  <polygon points="266.3,182.3 266.5,197.5 280.1,190.9 270.4,191.1" fill="rgb(200,168,78)"/>
  <polygon points="261.3,189.7 262.6,204.9 275.8,197.2 266.1,198.2" fill="rgb(200,168,78)"/>
  <polygon points="256.9,197.3 259.2,212.5 272.0,204.0 262.3,205.6" fill="rgb(200,168,78)"/>
  <polygon points="253.1,205.2 256.3,220.3 268.7,211.0 259.0,213.2" fill="rgb(200,168,78)"/>
  <polygon points="249.8,213.3 253.9,228.3 265.7,218.2 256.1,221.0" fill="rgb(200,168,78)"/>
  <polygon points="246.9,221.6 251.9,236.3 263.1,225.6 253.7,228.9" fill="rgb(200,168,78)"/>
  <polygon points="244.5,230.0 250.4,244.5 261.0,233.0 251.8,236.9" fill="rgb(200,168,78)"/>
  <polygon points="242.3,238.9 249.8,252.6 259.1,240.1 250.3,245.0" fill="rgb(200,168,78)"/>
  <polygon points="242.3,246.4 248.8,260.7 259.0,248.8 249.9,253.1" fill="rgb(200,168,78)"/>
  <polygon points="241.6,254.0 247.0,268.6 258.0,257.6 248.6,261.2" fill="rgb(200,168,78)"/>
  <polygon points="240.2,261.7 244.7,276.6 256.3,266.3 246.8,269.2" fill="rgb(200,168,78)"/>
  <polygon points="238.4,269.3 242.0,284.4 254.1,274.8 244.5,277.2" fill="rgb(200,168,78)"/>
  <polygon points="236.1,276.9 238.8,292.1 251.4,283.2 241.7,285.0" fill="rgb(200,168,78)"/>
  <polygon points="233.5,284.3 235.2,299.5 248.2,291.5 238.5,292.7" fill="rgb(200,168,78)"/>
  <polygon points="230.4,291.5 231.0,306.7 244.5,299.6 234.8,300.2" fill="rgb(200,168,78)"/>
  <polygon points="226.9,298.4 226.3,313.5 240.2,307.6 230.6,307.4" fill="rgb(200,168,78)"/>
  <polygon points="223.0,305.0 221.1,319.8 235.3,315.3 225.8,314.2" fill="rgb(200,168,78)"/>
  <polygon points="218.6,311.3 215.2,325.6 229.6,322.6 220.4,320.5" fill="rgb(200,168,78)"/>
  <polygon points="213.7,317.0 208.6,330.7 223.2,329.4 214.3,326.3" fill="rgb(200,168,78)"/>
  <polygon points="208.1,322.2 201.3,335.0 215.8,335.5 207.5,331.4" fill="rgb(200,168,78)"/>
  <polygon points="201.8,326.8 193.4,338.3 207.4,340.8 199.9,335.7" fill="rgb(200,168,78)"/>
  <polygon points="194.6,330.5 184.7,340.4 198.0,345.0 191.5,338.8" fill="rgb(200,168,78)"/>
  <polygon points="186.6,333.1 175.4,341.2 187.6,347.7 182.2,340.7" fill="rgb(200,168,78)"/>
  <polygon points="177.7,334.4 165.5,340.4 176.3,348.7 172.2,341.1" fill="rgb(200,168,78)"/>
  <polygon points="167.9,334.2 155.1,338.1 164.3,347.7 161.5,339.7" fill="rgb(200,168,78)"/>
  <polygon points="157.4,332.0 144.4,333.8 151.9,344.6 150.4,336.5" fill="rgb(200,168,78)"/>
  <polygon points="150.2,329.5 137.3,329.9 143.5,341.2 142.9,333.1" fill="rgb(200,168,78)"/>
  <polygon points="142.9,326.0 130.2,325.1 135.2,336.8 135.4,328.8" fill="rgb(200,168,78)"/>
  <polygon points="135.7,321.5 123.4,319.3 127.1,331.3 128.1,323.5" fill="rgb(200,168,78)"/>
  <polygon points="128.7,316.0 116.8,312.6 119.3,324.7 121.1,317.2" fill="rgb(200,168,78)"/>
  <polygon points="122.1,309.6 110.8,305.0 112.0,317.1 114.5,309.9" fill="rgb(200,168,78)"/>
  <polygon points="116.1,302.3 105.5,296.6 105.4,308.6 108.6,301.8" fill="rgb(200,168,78)"/>
  <polygon points="110.7,294.1 100.9,287.4 99.6,299.2 103.4,292.8" fill="rgb(200,168,78)"/>
  <polygon points="106.1,285.3 97.4,277.6 94.8,289.0 99.2,283.2" fill="rgb(200,168,78)"/>
  <polygon points="102.5,275.8 94.8,267.4 91.1,278.2 96.0,273.0" fill="rgb(200,168,78)"/>
  <polygon points="100.0,265.9 93.5,256.8 88.6,266.9 94.0,262.5" fill="rgb(200,168,78)"/>
</svg>